<svg width="201" height="53" viewBox="0 0 201 53" fill="none" xmlns="http://www.w3.org/2000/svg">
<path fill-rule="evenodd" clip-rule="evenodd" d="M174.533 0L201 26.4993L174.533 53L168.477 46.9364L184.27 31.1245H41.5584C39.6363 40.7426 31.1551 47.9891 20.9833 47.9891C9.39453 47.9891 0 38.5829 0 26.9798C0 15.3767 9.39453 5.97055 20.9833 5.97055C31.0541 5.97055 39.4678 13.0738 41.4993 22.5493H184.943L168.477 6.06357L174.533 0ZM30.8326 26.9798C30.8326 32.4261 26.4229 36.8413 20.9833 36.8413C15.5437 36.8413 11.134 32.4261 11.134 26.9798C11.134 21.5335 15.5437 17.1183 20.9833 17.1183C26.4229 17.1183 30.8326 21.5335 30.8326 26.9798Z" fill="black"/>
</svg>
