<svg width="121" height="120" viewBox="0 0 121 120" fill="none" xmlns="http://www.w3.org/2000/svg">
<circle cx="60.9976" cy="60.0015" r="58.8679" fill="white" stroke="#5E98CF" stroke-width="2.26415"/>
<circle cx="61.0412" cy="59.8654" r="52.8341" fill="url(#paint0_linear_4481_2138)"/>
<g clip-path="url(#clip0_4481_2138)">
<path fill-rule="evenodd" clip-rule="evenodd" d="M60.5005 50.5877C55.2953 50.5877 51.0742 54.8029 51.0742 60.0031C51.0742 61.7039 51.5286 63.2986 52.3172 64.674L68.6512 55.2774C67.019 52.4735 63.9809 50.5859 60.4988 50.5859L60.5005 50.5877Z" fill="#5E98CF"/>
<path fill-rule="evenodd" clip-rule="evenodd" d="M41.5703 60.0013C41.5703 49.5581 50.045 41.0916 60.4983 41.0916C67.5003 41.0916 73.6142 44.8907 76.8888 50.5379L88.2988 43.9743C87.841 43.171 87.1552 42.4995 86.2362 41.9669C78.6496 37.5957 71.0544 33.2383 63.4678 28.862C61.4224 27.6818 59.4404 27.7247 57.4105 28.9219C54.3896 30.7016 39.2677 39.3565 34.762 41.9634C32.907 43.0374 32.0034 44.68 32.0034 46.8142C32 55.6044 32.0034 64.3947 32 73.1867C32 74.2401 32.2212 75.1718 32.6669 75.9752L44.0786 69.4116C42.4841 66.6402 41.572 63.4269 41.572 60.0013H41.5703Z" fill="#5E98CF"/>
<path d="M52.3164 64.6723C53.9417 67.5053 56.9953 69.4169 60.4997 69.4169C64.0041 69.4169 67.097 67.4814 68.7138 64.6175L60.5871 59.9141L52.3181 64.6706L52.3164 64.6723Z" fill="#044E87"/>
<path d="M60.501 78.9086C53.4768 78.9086 47.3457 75.0856 44.0796 69.4093L32.668 75.9728C33.1257 76.8001 33.8201 77.4904 34.7614 78.0351C39.267 80.642 54.3906 89.297 57.4115 91.0766C59.4432 92.2739 61.4251 92.3167 63.4705 91.1365C71.0572 86.7603 78.6524 82.4028 86.2424 78.0317C87.1837 77.4887 87.878 76.7967 88.3358 75.9694L76.9413 69.375C73.6803 75.0685 67.539 78.9069 60.501 78.9069V78.9086Z" fill="#044E87"/>
<path d="M88.9951 46.8121C88.9951 45.7364 88.7636 44.7858 88.299 43.9688L60.5859 59.9101L88.3316 75.9679C88.7756 75.1646 88.9968 74.2311 88.9968 73.1794C88.9968 73.1794 88.9968 55.6023 88.9934 46.8121H88.9951ZM79.5585 61.0577H77.3914V63.2244H75.2226V61.0577H73.0537V58.8909H75.2226V56.7242H77.3914V58.8909H79.5585V61.0577ZM87.4692 61.0577H85.3003V63.2244H83.1315V61.0577H80.9644V58.8909H83.1315V56.7242H85.3003V58.8909H87.4692V61.0577Z" fill="#0062A2"/>
<path d="M85.3008 56.7344H83.1337V58.8994H80.9648V61.0661H83.1337V63.2329H85.3008V61.0661H87.4696V58.8994H85.3008V56.7344Z" fill="white"/>
<path d="M77.3906 56.7344H75.2218V58.8994H73.0547V61.0661H75.2218V63.2329H77.3906V61.0661H79.5595V58.8994H77.3906V56.7344Z" fill="white"/>
<path d="M68.7124 64.6195C67.0957 67.4834 64.025 69.4189 60.4983 69.4189C56.9716 69.4189 53.9404 67.5073 52.315 64.6743C51.5264 63.2972 51.072 61.7026 51.072 60.0034C51.072 54.8033 55.2914 50.588 60.4983 50.588C63.9787 50.588 67.0168 52.4755 68.6507 55.2794L76.8888 50.54C73.6142 44.8928 67.5003 41.0938 60.4983 41.0938C50.045 41.0938 41.5703 49.5603 41.5703 60.0034C41.5703 63.4291 42.4824 66.6424 44.0769 69.4137C47.343 75.0901 53.474 78.9131 60.4983 78.9131C67.5226 78.9131 73.6759 75.0746 76.9386 69.3812L68.7124 64.6195Z" fill="white"/>
</g>
<defs>
<linearGradient id="paint0_linear_4481_2138" x1="44" y1="35.9984" x2="89" y2="88.4984" gradientUnits="userSpaceOnUse">
<stop stop-color="#A4CBE9"/>
<stop offset="0.4375" stop-color="#DEEFFF"/>
<stop offset="0.984375" stop-color="#A4CBE9"/>
</linearGradient>
<clipPath id="clip0_4481_2138">
<rect width="57" height="64" fill="white" transform="translate(32 28)"/>
</clipPath>
</defs>
</svg>
