<svg width="21" height="16" viewBox="0 0 21 16" fill="none" xmlns="http://www.w3.org/2000/svg">
<path d="M13.82 0.259766C13.6214 0.615453 13.4444 0.982785 13.29 1.35977C11.7728 1.11982 10.2272 1.11982 8.71001 1.35977C8.5556 0.982785 8.37861 0.615453 8.18001 0.259766C6.7508 0.503967 5.36141 0.941303 4.05001 1.55977C1.70495 4.94405 0.641446 9.05272 1.05001 13.1498C2.57825 14.2986 4.29347 15.1748 6.12001 15.7398C6.53592 15.1904 6.90711 14.6085 7.23001 13.9998C6.63408 13.78 6.06131 13.502 5.52001 13.1698C5.66847 13.071 5.80891 12.9606 5.94001 12.8398C7.51847 13.6001 9.24798 13.9949 11 13.9949C12.752 13.9949 14.4815 13.6001 16.06 12.8398C16.2 12.9598 16.34 13.0698 16.48 13.1698C15.9358 13.4994 15.3636 13.7805 14.77 14.0098C15.0795 14.6323 15.4408 15.2277 15.85 15.7898C17.6743 15.2268 19.3865 14.3504 20.91 13.1998C21.3284 9.10197 20.264 4.98995 17.91 1.60977C16.6133 0.978503 15.2377 0.524436 13.82 0.259766ZM7.68001 10.8098C7.17959 10.7738 6.71255 10.5455 6.37693 10.1725C6.04131 9.79962 5.8632 9.31119 5.88001 8.80977C5.86067 8.30768 6.0379 7.81785 6.37402 7.44438C6.71015 7.0709 7.17867 6.84324 7.68001 6.80977C8.18135 6.84324 8.64987 7.0709 8.986 7.44438C9.32212 7.81785 9.49935 8.30768 9.48001 8.80977C9.49935 9.31185 9.32212 9.80168 8.986 10.1752C8.64987 10.5486 8.18135 10.7763 7.68001 10.8098ZM14.32 10.8098C13.8196 10.7738 13.3526 10.5455 13.0169 10.1725C12.6813 9.79962 12.5032 9.31119 12.52 8.80977C12.5007 8.30768 12.6779 7.81785 13.014 7.44438C13.3501 7.0709 13.8187 6.84324 14.32 6.80977C14.8223 6.84074 15.2923 7.06767 15.629 7.44171C15.9656 7.81576 16.1419 8.30702 16.12 8.80977C16.1419 9.31251 15.9656 9.80377 15.629 10.1778C15.2923 10.5519 14.8223 10.7788 14.32 10.8098Z" fill="white"/>
</svg>
