<svg width="14" height="12" viewBox="0 0 14 12" fill="none" xmlns="http://www.w3.org/2000/svg">
<path d="M8.88092 0.84082C8.74852 1.07795 8.63053 1.32283 8.52759 1.57415C7.5161 1.41419 6.48575 1.41419 5.47425 1.57415C5.37131 1.32283 5.25332 1.07795 5.12092 0.84082C4.16811 1.00362 3.24186 1.29518 2.36759 1.70749C0.804215 3.96368 0.0952128 6.70279 0.367588 9.43415C1.38641 10.2001 2.52989 10.7842 3.74759 11.1608C4.02486 10.7946 4.27232 10.4066 4.48759 10.0008C4.0903 9.85434 3.70845 9.669 3.34759 9.44749C3.44656 9.38163 3.54019 9.30807 3.62759 9.22749C4.67989 9.73436 5.8329 9.99758 7.00092 9.99758C8.16894 9.99758 9.32195 9.73436 10.3743 9.22749C10.4676 9.30749 10.5609 9.38082 10.6543 9.44749C10.2914 9.66725 9.90995 9.85464 9.51425 10.0075C9.72059 10.4225 9.96144 10.8195 10.2343 11.1942C11.4504 10.8188 12.5919 10.2345 13.6076 9.46749C13.8865 6.73562 13.1769 3.99428 11.6076 1.74082C10.7431 1.31998 9.82604 1.01727 8.88092 0.84082ZM4.78759 7.87415C4.45398 7.8502 4.14262 7.69794 3.91887 7.44933C3.69512 7.20073 3.57638 6.8751 3.58759 6.54082C3.57469 6.2061 3.69285 5.87954 3.91693 5.63056C4.14101 5.38158 4.45336 5.2298 4.78759 5.20749C5.12181 5.2298 5.43416 5.38158 5.65825 5.63056C5.88233 5.87954 6.00048 6.2061 5.98759 6.54082C6.00048 6.87554 5.88233 7.2021 5.65825 7.45108C5.43416 7.70006 5.12181 7.85184 4.78759 7.87415ZM9.21425 7.87415C8.88064 7.8502 8.56928 7.69794 8.34553 7.44933C8.12179 7.20073 8.00305 6.8751 8.01425 6.54082C8.00136 6.2061 8.11951 5.87954 8.3436 5.63056C8.56768 5.38158 8.88003 5.2298 9.21425 5.20749C9.5491 5.22814 9.86246 5.37942 10.0869 5.62878C10.3113 5.87815 10.4289 6.20565 10.4143 6.54082C10.4289 6.87599 10.3113 7.20349 10.0869 7.45286C9.86246 7.70222 9.5491 7.8535 9.21425 7.87415Z" fill="black" fill-opacity="0.3"/>
</svg>
