<svg width="120" height="120" viewBox="0 0 120 120" fill="none" xmlns="http://www.w3.org/2000/svg">
<rect width="120" height="120" rx="60" fill="#4DA2E6"/>
<path fill-rule="evenodd" clip-rule="evenodd" d="M80.4208 49.4086L91.0685 38.7609C96.171 46.1307 98.5599 55.0131 97.8204 63.8655C97.081 72.7179 93.2598 80.9812 87.0205 87.2206C80.7811 93.4599 72.5178 97.2811 63.6654 98.0205C54.813 98.76 45.9306 96.3711 38.5608 91.2686L49.2085 80.6209C53.628 82.9697 58.66 83.8555 63.569 83.149C68.478 82.4424 73.0069 80.1805 76.4936 76.6937C79.9804 73.2069 82.2423 68.6781 82.9489 63.7691C83.6555 58.8601 82.7696 53.8281 80.4208 49.4086ZM36.8276 56.4075C36.121 61.3165 37.0069 66.3484 39.3557 70.7679L28.7079 81.4157C23.6054 74.0459 21.2165 65.1635 21.956 56.3111C22.6954 47.4587 26.5166 39.1953 32.7559 32.956C38.9952 26.7167 47.2586 22.8955 56.111 22.1561C64.9634 21.4166 73.8458 23.8055 81.2156 28.908L70.5679 39.5557C66.1484 37.2069 61.1165 36.321 56.2074 37.0276C51.2984 37.7341 46.7696 39.9961 43.2828 43.4828C39.7961 46.9696 37.5341 51.4984 36.8276 56.4075Z" fill="white"/>
</svg>
