<svg width="120" height="120" viewBox="0 0 120 120" fill="none" xmlns="http://www.w3.org/2000/svg">
<path fill-rule="evenodd" clip-rule="evenodd" d="M0 120C0 86.8629 26.8629 60 60 60C93.1371 60 120 86.8629 120 120H60H0ZM38.0181 113.145H22.96C24.5632 104.325 29.1548 96.3553 35.9373 90.6186C42.7198 84.8819 51.2648 81.7408 60.0885 81.7408C68.9122 81.7408 77.4573 84.8819 84.2398 90.6186C91.0223 96.3553 95.6138 104.325 97.2171 113.145H82.1589C80.6947 108.359 77.763 104.174 73.7922 101.203C69.8213 98.2309 65.0195 96.628 60.0885 96.628C55.1575 96.628 50.3557 98.2309 46.3849 101.203C42.414 104.174 39.4823 108.359 38.0181 113.145Z" fill="black"/>
<path fill-rule="evenodd" clip-rule="evenodd" d="M60 60C26.8629 60 0 33.1371 0 0H60H120C120 33.1371 93.1371 60 60 60ZM73.7921 19.0206C77.7629 16.049 80.6946 11.8645 82.1588 7.07861H97.2171C95.6138 15.8979 91.0223 23.8679 84.2398 29.6046C77.4573 35.3413 68.9122 38.4824 60.0885 38.4824C51.2648 38.4824 42.7197 35.3413 35.9372 29.6046C29.1547 23.8679 24.5632 15.8979 22.96 7.07861H38.0181C39.4823 11.8645 42.414 16.049 46.3848 19.0206C50.3556 21.9923 55.1574 23.5952 60.0885 23.5952C65.0195 23.5952 69.8213 21.9923 73.7921 19.0206Z" fill="#3FD05A"/>
</svg>
