<svg width="120" height="120" viewBox="0 0 120 120" fill="none" xmlns="http://www.w3.org/2000/svg">
<rect width="60" height="60" fill="#FF791F"/>
<rect x="60" width="60" height="60" fill="black"/>
<rect y="60" width="60" height="60" fill="#4DA2E6"/>
<rect x="60" y="60" width="60" height="60" fill="#3FD05A"/>
<path fill-rule="evenodd" clip-rule="evenodd" d="M66.8555 38.0181V22.96C75.6747 24.5632 83.6447 29.1548 89.3814 35.9373C95.1182 42.7198 98.2592 51.2648 98.2592 60.0885C98.2592 68.9122 95.1182 77.4573 89.3815 84.2398C83.6447 91.0223 75.6747 95.6138 66.8555 97.2171V82.1589C71.6414 80.6947 75.8259 77.763 78.7975 73.7922C81.7691 69.8213 83.372 65.0196 83.372 60.0885C83.372 55.1575 81.7691 50.3557 78.7975 46.3849C75.8259 42.414 71.6414 39.4823 66.8555 38.0181ZM40.9794 73.7921C43.951 77.7629 48.1355 80.6947 52.9214 82.1588V97.2171C44.1021 95.6138 36.1321 91.0223 30.3954 84.2398C24.6587 77.4573 21.5176 68.9122 21.5176 60.0885C21.5176 51.2648 24.6587 42.7198 30.3954 35.9373C36.1321 29.1548 44.1021 24.5632 52.9214 22.96V38.0181C48.1355 39.4823 43.951 42.414 40.9794 46.3848C38.0077 50.3556 36.4048 55.1574 36.4048 60.0885C36.4048 65.0195 38.0077 69.8213 40.9794 73.7921Z" fill="white"/>
</svg>
