<svg width="180" height="180" viewBox="0 0 180 180" fill="none" xmlns="http://www.w3.org/2000/svg">
<circle opacity="0.1" cx="90" cy="90" r="90" fill="#3FD05A"/>
<circle cx="90" cy="90" r="70" fill="#3FD05A"/>
<g clip-path="url(#clip0_1399_468)">
<path d="M127.558 64.2562C125.261 61.299 121.034 60.7893 118.112 63.1147C118.112 63.1147 81.4847 94.2802 80.4253 95.22L66.0029 82.345C63.024 79.6797 58.5032 79.4514 55.2516 82.0105C51.5805 84.904 51.4441 89.2046 54.3024 92.9211L72.2701 118.039C72.354 118.145 72.4589 118.278 72.5481 118.384C76.1773 122.706 82.5808 123.232 86.8499 119.558L127.065 72.1883L127.185 72.0556C129.425 69.6452 129.645 66.9321 127.563 64.2509L127.558 64.2562Z" fill="white"/>
</g>
<defs>
<clipPath id="clip0_1399_468">
<rect width="77" height="63" fill="white" transform="translate(52 59)"/>
</clipPath>
</defs>
</svg>
