<svg width="14" height="14" viewBox="0 0 14 14" fill="none" xmlns="http://www.w3.org/2000/svg">
<path d="M12.9647 4.53765C12.958 4.03273 12.8635 3.53283 12.6854 3.06031C12.5309 2.66175 12.2951 2.29978 11.9928 1.99753C11.6906 1.69529 11.3286 1.45941 10.93 1.30498C10.4636 1.12988 9.97083 1.03521 9.47271 1.02498C8.83138 0.996312 8.62805 0.988312 7.00005 0.988312C5.37205 0.988312 5.16338 0.988312 4.52671 1.02498C4.02882 1.03528 3.53628 1.12996 3.07005 1.30498C2.67142 1.4593 2.30939 1.69514 2.00714 1.9974C1.70488 2.29966 1.46904 2.66168 1.31471 3.06031C1.13927 3.5264 1.0448 4.01905 1.03538 4.51698C1.00671 5.15898 0.998047 5.36231 0.998047 6.99031C0.998047 8.61831 0.998047 8.82631 1.03538 9.46364C1.04538 9.96231 1.13938 10.4543 1.31471 10.9216C1.4693 11.3202 1.70531 11.682 2.00767 11.9842C2.31003 12.2863 2.67209 12.522 3.07071 12.6763C3.53567 12.8584 4.0283 12.9599 4.52738 12.9763C5.16938 13.005 5.37271 13.0136 7.00071 13.0136C8.62871 13.0136 8.83738 13.0136 9.47405 12.9763C9.97215 12.9665 10.465 12.872 10.9314 12.697C11.3298 12.5424 11.6917 12.3064 11.9939 12.0042C12.2962 11.702 12.5321 11.3401 12.6867 10.9416C12.862 10.475 12.956 9.98298 12.966 9.48364C12.9947 8.84231 13.0034 8.63898 13.0034 7.01031C13.002 5.38231 13.002 5.17564 12.9647 4.53765ZM6.99605 10.069C5.29338 10.069 3.91405 8.68964 3.91405 6.98698C3.91405 5.28431 5.29338 3.90498 6.99605 3.90498C7.81344 3.90498 8.59736 4.22969 9.17535 4.80768C9.75334 5.38566 10.078 6.16958 10.078 6.98698C10.078 7.80438 9.75334 8.58829 9.17535 9.16628C8.59736 9.74427 7.81344 10.069 6.99605 10.069ZM10.2007 4.50964C10.1063 4.50973 10.0128 4.4912 9.92559 4.45512C9.83836 4.41903 9.7591 4.3661 9.69234 4.29935C9.62559 4.2326 9.57266 4.15334 9.53657 4.0661C9.50049 3.97887 9.48196 3.88538 9.48205 3.79098C9.48205 3.69665 9.50063 3.60324 9.53673 3.51608C9.57283 3.42893 9.62574 3.34974 9.69244 3.28304C9.75915 3.21634 9.83833 3.16342 9.92549 3.12732C10.0126 3.09123 10.106 3.07264 10.2004 3.07264C10.2947 3.07264 10.3881 3.09123 10.4753 3.12732C10.5624 3.16342 10.6416 3.21634 10.7083 3.28304C10.775 3.34974 10.8279 3.42893 10.864 3.51608C10.9001 3.60324 10.9187 3.69665 10.9187 3.79098C10.9187 4.18831 10.5974 4.50964 10.2007 4.50964Z" fill="black" fill-opacity="0.3"/>
</svg>
