<svg width="121" height="120" viewBox="0 0 121 120" fill="none" xmlns="http://www.w3.org/2000/svg">
<circle cx="60.9976" cy="60.0015" r="58.8679" fill="white" stroke="#4483B5" stroke-width="2.26415"/>
<circle cx="61.0412" cy="59.8654" r="52.8341" fill="url(#paint0_linear_4481_2130)"/>
<g clip-path="url(#clip0_4481_2130)">
<path d="M60.1806 29.0005C57.6617 29.0123 55.2561 29.2287 53.1395 29.606C46.9042 30.7156 45.7721 33.0382 45.7721 37.3214V42.9782H60.5069V44.8638H45.7721H40.2422C35.9599 44.8638 32.2102 47.4566 31.0373 52.3889C29.6844 58.0425 29.6244 61.5704 31.0373 67.4737C32.0847 71.8679 34.586 74.9988 38.8684 74.9988H43.9345V68.2176C43.9345 63.3185 48.1425 58.9972 53.1395 58.9972H67.8571C71.954 58.9972 75.2245 55.5992 75.2245 51.4547V37.3214C75.2245 33.2989 71.8558 30.2773 67.8571 29.606C65.3259 29.1815 62.6995 28.9887 60.1806 29.0005ZM52.2121 33.5502C53.7341 33.5502 54.977 34.8226 54.977 36.3872C54.977 37.9463 53.7341 39.207 52.2121 39.207C50.6847 39.207 49.4472 37.9463 49.4472 36.3872C49.4472 34.8226 50.6847 33.5502 52.2121 33.5502Z" fill="url(#paint1_linear_4481_2130)"/>
<path d="M77.0634 44.8672V51.4581C77.0634 56.568 72.7627 60.8689 67.8585 60.8689H53.1408C49.1094 60.8689 45.7734 64.3444 45.7734 68.4113V82.5446C45.7734 86.5671 49.2458 88.933 53.1408 90.0871C57.805 91.4686 62.2778 91.7182 67.8585 90.0871C71.568 89.0052 75.2259 86.8278 75.2259 82.5446V76.8878H60.5082V75.0022H75.2259H82.5933C86.8756 75.0022 88.4714 71.9933 89.9607 67.4771C91.499 62.8277 91.4336 58.3566 89.9607 52.3923C88.9023 48.098 86.8811 44.8672 82.5933 44.8672H77.0634ZM68.7858 80.659C70.3133 80.659 71.5507 81.9198 71.5507 83.4788C71.5507 85.0434 70.3133 86.3158 68.7858 86.3158C67.2638 86.3158 66.0209 85.0434 66.0209 83.4788C66.0209 81.9198 67.2638 80.659 68.7858 80.659Z" fill="url(#paint2_linear_4481_2130)"/>
</g>
<defs>
<linearGradient id="paint0_linear_4481_2130" x1="44" y1="35.9984" x2="89" y2="88.4984" gradientUnits="userSpaceOnUse">
<stop stop-color="#C6E5FF"/>
<stop offset="0.4375" stop-color="#FFFDF8"/>
<stop offset="0.984375" stop-color="#FFEFB4"/>
</linearGradient>
<linearGradient id="paint1_linear_4481_2130" x1="30" y1="29" x2="64.185" y2="57.9187" gradientUnits="userSpaceOnUse">
<stop stop-color="#5A9FD4"/>
<stop offset="1" stop-color="#306998"/>
</linearGradient>
<linearGradient id="paint2_linear_4481_2130" x1="68.4317" y1="83.0032" x2="56.1241" y2="65.8818" gradientUnits="userSpaceOnUse">
<stop stop-color="#FFD43B"/>
<stop offset="1" stop-color="#FFE873"/>
</linearGradient>
<clipPath id="clip0_4481_2130">
<rect width="61" height="62" fill="white" transform="translate(30 29)"/>
</clipPath>
</defs>
</svg>
