<svg width="121" height="120" viewBox="0 0 121 120" fill="none" xmlns="http://www.w3.org/2000/svg">
<circle cx="60.9976" cy="60.0015" r="58.8679" fill="white" stroke="black" stroke-width="2.26415"/>
<circle cx="61.0412" cy="59.8654" r="52.8341" fill="url(#paint0_linear_4481_2155)"/>
<path d="M62.342 26.4453C44.2448 26.4453 29.5156 41.1814 29.5156 59.2717C29.5156 77.362 44.2517 92.0981 62.342 92.0981C80.4323 92.0981 95.1684 77.362 95.1684 59.2717C95.1684 41.1814 80.4323 26.4453 62.342 26.4453ZM62.2934 29.362C62.8547 29.3765 63.3881 29.6105 63.7799 30.0139C64.1716 30.4174 64.3908 30.9584 64.3906 31.5217C64.3906 32.0945 64.1631 32.6438 63.7581 33.0489C63.353 33.4539 62.8037 33.6814 62.2309 33.6814C61.6581 33.6814 61.1088 33.4539 60.7037 33.0489C60.2987 32.6438 60.0712 32.0945 60.0712 31.5217C60.0711 31.2327 60.1289 30.9467 60.2413 30.6805C60.3538 30.4143 60.5185 30.1734 60.7257 29.972C60.9329 29.7706 61.1784 29.6129 61.4477 29.5081C61.717 29.4033 62.0046 29.3536 62.2934 29.362ZM67.2378 32.9175C71.0293 33.6277 74.6207 35.1546 77.7626 37.3924C80.9045 39.6301 83.5217 42.5249 85.4323 45.8759L82.8837 51.6259C82.4462 52.6189 82.8976 53.7856 83.8837 54.23L88.7865 56.4036C88.9385 57.9362 88.9571 59.479 88.842 61.0148H86.1128C85.842 61.0148 85.7309 61.1953 85.7309 61.4592V62.7092C85.7309 65.6536 84.0712 66.2995 82.6128 66.4592C81.224 66.6189 79.6892 65.8759 79.4948 65.0286C78.6753 60.4245 77.3142 59.4453 75.1615 57.7439C77.8351 56.0495 80.6128 53.5425 80.6128 50.1953C80.6128 46.5773 78.1337 44.2995 76.4462 43.1814C74.0712 41.6189 71.4462 41.3064 70.7378 41.3064H42.5434C46.442 36.9512 51.6678 34.0027 57.4115 32.9175L60.7378 36.4036C61.4878 37.1884 62.7309 37.2231 63.5156 36.4661L67.2378 32.9175ZM36.5434 48.9036C37.1053 48.9199 37.6387 49.1546 38.0303 49.5579C38.4219 49.9612 38.6409 50.5012 38.6406 51.0634C38.6406 51.6362 38.4131 52.1855 38.0081 52.5905C37.603 52.9955 37.0537 53.2231 36.4809 53.2231C35.9081 53.2231 35.3588 52.9955 34.9537 52.5905C34.5487 52.1855 34.3212 51.6362 34.3212 51.0634C34.3211 50.7744 34.3789 50.4884 34.4913 50.2222C34.6038 49.956 34.7685 49.7151 34.9757 49.5137C35.1829 49.3123 35.4284 49.1545 35.6977 49.0498C35.967 48.945 36.2546 48.8953 36.5434 48.9036ZM88.0365 49.0009C88.5984 49.0171 89.1318 49.2518 89.5234 49.6551C89.915 50.0584 90.1339 50.5985 90.1337 51.1606C90.1337 51.7334 89.9061 52.2827 89.5011 52.6877C89.0961 53.0928 88.5467 53.3203 87.974 53.3203C87.4012 53.3203 86.8518 53.0928 86.4468 52.6877C86.0418 52.2827 85.8142 51.7334 85.8142 51.1606C85.8141 50.8716 85.872 50.5856 85.9844 50.3194C86.0968 50.0532 86.2615 49.8123 86.4687 49.6109C86.6759 49.4095 86.9215 49.2518 87.1908 49.147C87.46 49.0422 87.7476 48.9925 88.0365 49.0009ZM40.6128 49.3481H44.3767V66.3203H36.7795C35.8412 63.0255 35.5488 59.5803 35.9184 56.1745L40.5712 54.105C41.5642 53.6606 42.0156 52.5009 41.5712 51.5078L40.6128 49.3481ZM56.3212 49.5286H65.2865C65.7517 49.5286 68.5573 50.0634 68.5573 52.1675C68.5573 53.9106 66.4045 54.5356 64.6337 54.5356H56.3142L56.3212 49.5286ZM56.3212 61.7231H63.1892C63.8142 61.7231 66.5434 61.9036 67.4115 65.3898C67.6823 66.4592 68.2865 69.9453 68.6962 71.0634C69.1059 72.3134 70.7656 74.8134 72.5365 74.8134H83.7448C82.9936 75.8193 82.1721 76.7708 81.2865 77.6606L76.724 76.6814C75.6615 76.4523 74.6128 77.1328 74.3837 78.1953L73.3003 83.2509C69.8167 84.829 66.0335 85.6366 62.2091 85.6186C58.3847 85.6006 54.6093 84.7575 51.1406 83.1467L50.0573 78.0911C49.8281 77.0286 48.7865 76.3481 47.724 76.5773L43.2587 77.5356C42.4301 76.6808 41.6598 75.7714 40.9531 74.8134H62.6684C62.9115 74.8134 63.0781 74.7717 63.0781 74.5425V66.862C63.0781 66.6398 62.9115 66.5911 62.6684 66.5911H56.3142L56.3212 61.7231ZM46.3003 79.3134C46.8622 79.3296 47.3956 79.5643 47.7873 79.9676C48.1789 80.3709 48.3978 80.911 48.3976 81.4731C48.3976 82.0459 48.17 82.5952 47.765 83.0002C47.36 83.4053 46.8106 83.6328 46.2378 83.6328C45.6651 83.6328 45.1157 83.4053 44.7107 83.0002C44.3057 82.5952 44.0781 82.0459 44.0781 81.4731C44.078 81.1841 44.1359 80.8981 44.2483 80.6319C44.3607 80.3657 44.5254 80.1248 44.7326 79.9234C44.9398 79.722 45.1854 79.5643 45.4546 79.4595C45.7239 79.3547 46.0115 79.305 46.3003 79.3134ZM78.2795 79.4106C78.8414 79.4269 79.3748 79.6616 79.7664 80.0648C80.158 80.4681 80.377 81.0082 80.3767 81.5703C80.3767 82.1431 80.1492 82.6924 79.7442 83.0975C79.3391 83.5025 78.7898 83.73 78.217 83.73C77.6442 83.73 77.0949 83.5025 76.6899 83.0975C76.2848 82.6924 76.0573 82.1431 76.0573 81.5703C76.0572 81.2814 76.115 80.9953 76.2275 80.7291C76.3399 80.4629 76.5046 80.222 76.7118 80.0206C76.919 79.8192 77.1645 79.6615 77.4338 79.5567C77.7031 79.4519 77.9907 79.4022 78.2795 79.4106Z" fill="black"/>
<path fill-rule="evenodd" clip-rule="evenodd" d="M93.3338 59.2743C93.3338 67.4942 90.0684 75.3774 84.2561 81.1897C78.4438 87.002 70.5606 90.2674 62.3407 90.2674C54.1208 90.2674 46.2376 87.002 40.4253 81.1897C34.613 75.3774 31.3477 67.4942 31.3477 59.2743C31.3477 51.0544 34.613 43.1712 40.4253 37.3589C46.2376 31.5466 54.1208 28.2812 62.3407 28.2812C70.5606 28.2812 78.4438 31.5466 84.2561 37.3589C90.0684 43.1712 93.3338 51.0544 93.3338 59.2743ZM92.7504 56.2812L97.5838 59.2743L92.7504 62.2674L96.9032 66.1493L91.5838 68.1424L94.9032 72.7604L89.2852 73.6771L91.6463 78.8576L85.9588 78.6563L87.2643 84.1979L81.7227 82.8924L81.924 88.5799L76.7435 86.2188L75.8268 91.8368L71.2088 88.5174L69.2157 93.8368L65.3338 89.684L62.3407 94.5174L59.3477 89.684L55.4657 93.8368L53.4727 88.5174L48.8546 91.8368L47.9379 86.2188L42.7574 88.5799L42.9588 82.8924L37.4171 84.1979L38.7227 78.6563L33.0352 78.8576L35.3963 73.6771L29.7782 72.7604L33.0977 68.1424L27.7782 66.1493L31.931 62.2674L27.0977 59.2743L31.931 56.2812L27.7782 52.3993L33.0977 50.4062L29.7782 45.7882L35.3963 44.8715L33.0352 39.691L38.7227 39.8924L37.4171 34.3507L42.9588 35.6562L42.7574 29.9687L47.9379 32.3299L48.8546 26.7118L53.4727 30.0312L55.4657 24.7118L59.3477 28.8646L62.3407 24.0312L65.3338 28.8646L69.2157 24.7118L71.2088 30.0312L75.8268 26.7118L76.7435 32.3299L81.924 29.9687L81.7227 35.6562L87.2643 34.3507L85.9588 39.8924L91.6463 39.691L89.2852 44.8715L94.9032 45.7882L91.5838 50.4062L96.9032 52.3993L92.7504 56.2812Z" fill="black" stroke="black" stroke-width="3" stroke-linecap="round" stroke-linejoin="round"/>
<defs>
<linearGradient id="paint0_linear_4481_2155" x1="44" y1="35.9984" x2="89" y2="88.4984" gradientUnits="userSpaceOnUse">
<stop stop-color="#C1C1C1"/>
<stop offset="0.4375" stop-color="#FAFAFA"/>
<stop offset="0.984375" stop-color="#C1C1C1"/>
</linearGradient>
</defs>
</svg>
