<svg width="14" height="14" viewBox="0 0 14 14" fill="none" xmlns="http://www.w3.org/2000/svg">
<path d="M6.99398 0.333328C3.31398 0.333328 0.333984 3.32 0.333984 7C0.333984 10.68 3.31398 13.6667 6.99398 13.6667C10.6807 13.6667 13.6673 10.68 13.6673 7C13.6673 3.32 10.6807 0.333328 6.99398 0.333328ZM11.614 4.33333H9.64732C9.43398 3.5 9.12732 2.7 8.72732 1.96C9.95398 2.38 10.974 3.23333 11.614 4.33333ZM7.00065 1.69333C7.55398 2.49333 7.98732 3.38 8.27398 4.33333H5.72732C6.01398 3.38 6.44732 2.49333 7.00065 1.69333ZM1.84065 8.33333C1.73398 7.90666 1.66732 7.46 1.66732 7C1.66732 6.54 1.73398 6.09333 1.84065 5.66666H4.09398C4.04065 6.10666 4.00065 6.54666 4.00065 7C4.00065 7.45333 4.04065 7.89333 4.09398 8.33333H1.84065ZM2.38732 9.66666H4.35398C4.56732 10.5 4.87398 11.3 5.27398 12.04C4.04732 11.62 3.02732 10.7733 2.38732 9.66666V9.66666ZM4.35398 4.33333H2.38732C3.02732 3.22666 4.04732 2.38 5.27398 1.96C4.87398 2.7 4.56732 3.5 4.35398 4.33333V4.33333ZM7.00065 12.3067C6.44732 11.5067 6.01398 10.62 5.72732 9.66666H8.27398C7.98732 10.62 7.55398 11.5067 7.00065 12.3067ZM8.56065 8.33333H5.44065C5.38065 7.89333 5.33398 7.45333 5.33398 7C5.33398 6.54666 5.38065 6.1 5.44065 5.66666H8.56065C8.62065 6.1 8.66732 6.54666 8.66732 7C8.66732 7.45333 8.62065 7.89333 8.56065 8.33333ZM8.72732 12.04C9.12732 11.3 9.43398 10.5 9.64732 9.66666H11.614C10.974 10.7667 9.95398 11.62 8.72732 12.04V12.04ZM9.90732 8.33333C9.96065 7.89333 10.0007 7.45333 10.0007 7C10.0007 6.54666 9.96065 6.10666 9.90732 5.66666H12.1607C12.2673 6.09333 12.334 6.54 12.334 7C12.334 7.46 12.2673 7.90666 12.1607 8.33333H9.90732Z" fill="black" fill-opacity="0.3"/>
</svg>
