<svg width="14" height="12" viewBox="0 0 14 12" fill="none" xmlns="http://www.w3.org/2000/svg">
<path d="M12.0893 3.33266C12.098 3.44933 12.098 3.56533 12.098 3.68133C12.098 7.23133 9.39598 11.322 4.45798 11.322C2.93665 11.322 1.52332 10.8813 0.333984 10.116C0.549984 10.1407 0.757984 10.1493 0.982651 10.1493C2.19131 10.1523 3.36575 9.74809 4.31665 9.002C3.75627 8.99186 3.21304 8.80697 2.76281 8.47316C2.31258 8.13934 1.97784 7.67326 1.80532 7.14C1.97132 7.16466 2.13798 7.18133 2.31265 7.18133C2.55332 7.18133 2.79532 7.148 3.01998 7.09C2.41182 6.96721 1.86497 6.63756 1.4724 6.15712C1.07983 5.67668 0.86578 5.0751 0.866651 4.45466V4.42133C1.22465 4.62066 1.63998 4.74533 2.07998 4.762C1.71138 4.51705 1.40913 4.18468 1.20021 3.79452C0.991291 3.40437 0.882193 2.96857 0.882651 2.526C0.882651 2.02733 1.01532 1.57 1.24798 1.17133C1.92274 2.00134 2.76432 2.68037 3.71821 3.16444C4.6721 3.6485 5.71703 3.92681 6.78532 3.98133C6.74398 3.78133 6.71865 3.574 6.71865 3.366C6.71848 3.01331 6.78781 2.66404 6.9227 2.33816C7.05759 2.01228 7.25538 1.71618 7.50478 1.46679C7.75417 1.2174 8.05027 1.0196 8.37614 0.884716C8.70202 0.749828 9.05129 0.680489 9.40398 0.680664C10.1773 0.680664 10.8753 1.00466 11.366 1.52866C11.9672 1.41241 12.5437 1.19295 13.07 0.879998C12.8696 1.50054 12.4498 2.02673 11.8893 2.36C12.4225 2.29918 12.9436 2.15897 13.4353 1.944C13.0681 2.4794 12.613 2.94889 12.0893 3.33266Z" fill="black" fill-opacity="0.3"/>
</svg>
