<svg width="20" height="16" viewBox="0 0 20 16" fill="none" xmlns="http://www.w3.org/2000/svg">
<path d="M17.6329 3.99753C17.6459 4.17253 17.6459 4.34653 17.6459 4.52053C17.6459 9.84553 13.5929 15.9815 6.18588 15.9815C3.90388 15.9815 1.78388 15.3205 -0.00012207 14.1725C0.323878 14.2095 0.635878 14.2225 0.972878 14.2225C2.78587 14.2269 4.54752 13.6207 5.97388 12.5015C5.1333 12.4863 4.31845 12.209 3.64312 11.7083C2.96778 11.2075 2.46566 10.5084 2.20688 9.70853C2.45588 9.74553 2.70588 9.77053 2.96788 9.77053C3.32888 9.77053 3.69188 9.72053 4.02888 9.63353C3.11664 9.44934 2.29635 8.95488 1.7075 8.23422C1.11864 7.51355 0.797571 6.61118 0.798878 5.68053V5.63053C1.33588 5.92953 1.95888 6.11653 2.61888 6.14153C2.06597 5.77412 1.6126 5.27555 1.29922 4.69032C0.985837 4.10509 0.822191 3.45139 0.822878 2.78753C0.822878 2.03953 1.02188 1.35353 1.37088 0.755532C2.38302 2.00055 3.64538 3.01909 5.07621 3.74519C6.50705 4.47129 8.07444 4.88875 9.67688 4.97053C9.61488 4.67053 9.57688 4.35953 9.57688 4.04753C9.57661 3.51849 9.68062 2.99459 9.88296 2.50577C10.0853 2.01695 10.382 1.57281 10.7561 1.19872C11.1302 0.824633 11.5743 0.527943 12.0631 0.32561C12.5519 0.123277 13.0758 0.0192689 13.6049 0.0195317C14.7649 0.0195317 15.8119 0.505532 16.5479 1.29153C17.4496 1.11715 18.3144 0.787954 19.1039 0.318532C18.8033 1.24935 18.1736 2.03864 17.3329 2.53853C18.1327 2.44731 18.9143 2.23698 19.6519 1.91453C19.101 2.71763 18.4184 3.42188 17.6329 3.99753Z" fill="white"/>
</svg>
