<svg width="120" height="120" viewBox="0 0 120 120" fill="none" xmlns="http://www.w3.org/2000/svg">
<path fill-rule="evenodd" clip-rule="evenodd" d="M60 112.653C89.0795 112.653 112.653 89.0795 112.653 60C112.653 30.9205 89.0795 7.34694 60 7.34694C30.9205 7.34694 7.34694 30.9205 7.34694 60C7.34694 89.0795 30.9205 112.653 60 112.653ZM60 120C93.1371 120 120 93.1371 120 60C120 26.8629 93.1371 0 60 0C26.8629 0 0 26.8629 0 60C0 93.1371 26.8629 120 60 120Z" fill="#3FD05A"/>
<path d="M112.653 60C112.653 89.0795 89.0795 112.653 60 112.653V120C93.1371 120 120 93.1371 120 60H112.653Z" fill="#FF791F"/>
</svg>
