<svg width="14" height="14" viewBox="0 0 14 14" fill="none" xmlns="http://www.w3.org/2000/svg">
<path d="M12.3333 0.333008H5.66665C4.93131 0.333008 4.33331 0.931008 4.33331 1.66634V4.33301H1.66665C0.931313 4.33301 0.333313 4.93101 0.333313 5.66634V12.333C0.333313 13.0683 0.931313 13.6663 1.66665 13.6663H8.33331C9.06865 13.6663 9.66665 13.0683 9.66665 12.333V9.66634H12.3333C13.0686 9.66634 13.6666 9.06834 13.6666 8.33301V1.66634C13.6666 0.931008 13.0686 0.333008 12.3333 0.333008ZM1.66665 12.333V5.66634H8.33331L8.33465 12.333H1.66665ZM12.3333 8.33301H9.66665V5.66634C9.66665 4.93101 9.06865 4.33301 8.33331 4.33301H5.66665V1.66634H12.3333V8.33301Z" fill="#FF791F"/>
</svg>
