<svg width="121" height="120" viewBox="0 0 121 120" fill="none" xmlns="http://www.w3.org/2000/svg">
<circle cx="60.9975" cy="60" r="58.8679" fill="white" stroke="black" stroke-width="2.26415"/>
<circle cx="61.0411" cy="59.867" r="52.8341" fill="url(#paint0_linear_4476_1368)"/>
<path fill-rule="evenodd" clip-rule="evenodd" d="M48.5231 68.7857C50.5193 71.4475 53.3303 73.4127 56.5454 74.3942V84.4884C50.6209 83.4136 45.2668 80.3358 41.4131 75.7892C37.5593 71.2426 35.4492 65.5145 35.4492 59.5996C35.4492 53.6848 37.5593 47.9567 41.4131 43.4101C45.2668 38.8635 50.6209 35.7857 56.5454 34.7109V44.805C53.3303 45.7865 50.5193 47.7517 48.5231 50.4135C46.5268 53.0753 45.45 56.2941 45.45 59.5996C45.45 62.9051 46.5268 66.1239 48.5231 68.7857ZM65.9021 44.805V34.7109C71.8266 35.7857 77.1806 38.8635 81.0344 43.4101C84.8882 47.9567 86.9982 53.6848 86.9982 59.5996C86.9982 65.5145 84.8882 71.2426 81.0344 75.7892C77.1806 80.3358 71.8266 83.4136 65.9021 84.4884V74.3943C69.1172 73.4128 71.9282 71.4475 73.9244 68.7857C75.9207 66.1239 76.9975 62.9051 76.9975 59.5996C76.9975 56.2942 75.9207 53.0754 73.9244 50.4136C71.9282 47.7518 69.1172 45.7865 65.9021 44.805Z" fill="#FF791F"/>
<path d="M31.5 83L30.2846 86.2846L27 87.5L30.2846 88.7154L31.5 92L32.7154 88.7154L36 87.5L32.7154 86.2846L31.5 83Z" fill="white"/>
<path d="M85.5 20L84.0145 24.0145L80 25.5L84.0145 26.9855L85.5 31L86.9855 26.9855L91 25.5L86.9855 24.0145L85.5 20Z" fill="white"/>
<path d="M92.5 37L91.5547 39.5547L89 40.5L91.5547 41.4453L92.5 44L93.4453 41.4453L96 40.5L93.4453 39.5547L92.5 37Z" fill="white"/>
<defs>
<linearGradient id="paint0_linear_4476_1368" x1="44" y1="36.0001" x2="88.9999" y2="88.5" gradientUnits="userSpaceOnUse">
<stop/>
<stop offset="0.4375" stop-color="#535353"/>
<stop offset="0.984375"/>
</linearGradient>
</defs>
</svg>
