<svg width="16" height="17" viewBox="0 0 16 17" fill="none" xmlns="http://www.w3.org/2000/svg">
<path d="M9.87994 2.91016C9.74754 3.14728 9.62955 3.39217 9.52661 3.64349C8.51512 3.48352 7.48477 3.48352 6.47328 3.64349C6.37034 3.39217 6.25235 3.14728 6.11994 2.91016C5.16714 3.07296 4.24088 3.36451 3.36661 3.77682C1.80324 6.03301 1.09424 8.77212 1.36661 11.5035C2.38544 12.2694 3.52892 12.8535 4.74661 13.2302C5.02389 12.8639 5.27135 12.476 5.48661 12.0702C5.08933 11.9237 4.70748 11.7383 4.34661 11.5168C4.44559 11.451 4.53921 11.3774 4.62661 11.2968C5.67892 11.8037 6.83192 12.0669 7.99994 12.0669C9.16797 12.0669 10.321 11.8037 11.3733 11.2968C11.4666 11.3768 11.5599 11.4502 11.6533 11.5168C11.2904 11.7366 10.909 11.924 10.5133 12.0768C10.7196 12.4918 10.9605 12.8888 11.2333 13.2635C12.4494 12.8882 13.591 12.3039 14.6066 11.5368C14.8855 8.80496 14.1759 6.06361 12.6066 3.81016C11.7422 3.38931 10.8251 3.0866 9.87994 2.91016ZM5.78661 9.94349C5.453 9.91954 5.14164 9.76728 4.91789 9.51867C4.69414 9.27006 4.57541 8.94444 4.58661 8.61016C4.57372 8.27543 4.69187 7.94888 4.91595 7.6999C5.14004 7.45091 5.45238 7.29914 5.78661 7.27682C6.12084 7.29914 6.43319 7.45091 6.65727 7.6999C6.88135 7.94888 6.9995 8.27543 6.98661 8.61016C6.9995 8.94488 6.88135 9.27143 6.65727 9.52042C6.43319 9.7694 6.12084 9.92117 5.78661 9.94349ZM10.2133 9.94349C9.87967 9.91954 9.56831 9.76728 9.34456 9.51867C9.12081 9.27006 9.00207 8.94444 9.01328 8.61016C9.00038 8.27543 9.11854 7.94888 9.34262 7.6999C9.5667 7.45091 9.87905 7.29914 10.2133 7.27682C10.5481 7.29747 10.8615 7.44876 11.0859 7.69812C11.3103 7.94748 11.4279 8.27499 11.4133 8.61016C11.4279 8.94532 11.3103 9.27283 11.0859 9.52219C10.8615 9.77155 10.5481 9.92284 10.2133 9.94349Z" fill="white"/>
</svg>
