<svg width="4" height="12" viewBox="0 0 4 12" fill="none" xmlns="http://www.w3.org/2000/svg">
<path d="M2.00008 3.33268C2.73341 3.33268 3.33341 2.73268 3.33341 1.99935C3.33341 1.26602 2.73341 0.666016 2.00008 0.666016C1.26675 0.666016 0.666748 1.26602 0.666748 1.99935C0.666748 2.73268 1.26675 3.33268 2.00008 3.33268ZM2.00008 4.66602C1.26675 4.66602 0.666748 5.26602 0.666748 5.99935C0.666748 6.73268 1.26675 7.33268 2.00008 7.33268C2.73341 7.33268 3.33341 6.73268 3.33341 5.99935C3.33341 5.26602 2.73341 4.66602 2.00008 4.66602ZM2.00008 8.66602C1.26675 8.66602 0.666748 9.26602 0.666748 9.99935C0.666748 10.7327 1.26675 11.3327 2.00008 11.3327C2.73341 11.3327 3.33341 10.7327 3.33341 9.99935C3.33341 9.26602 2.73341 8.66602 2.00008 8.66602Z" fill="black"/>
</svg>
