<svg width="121=" height="121" viewBox="0 0 121 121" fill="none" xmlns="http://www.w3.org/2000/svg">
<circle cx="60.2097" cy="60.2083" r="59.0723" fill="white" stroke="black" stroke-width="2.27201"/>
<circle cx="60.2519" cy="60.0749" r="54.353" fill="black" stroke="black" stroke-width="2.67091"/>
<circle cx="60.2502" cy="60.0749" r="39.1288" fill="white" stroke="black" stroke-width="1.78061"/>
<circle cx="60.2539" cy="60.0752" r="18.1177" fill="#FF791F" stroke="black" stroke-width="2.67091"/>
<path d="M60.2078 48.8481C53.9682 48.8481 48.8477 53.9686 48.8477 60.2082C48.8477 65.5327 52.5839 70.3694 57.5453 71.5683V67.8099C57.0537 67.9175 56.6012 67.9207 56.1008 67.7731C55.4295 67.575 54.8839 67.1278 54.479 66.4459C54.2209 66.0104 53.7635 65.5383 53.2863 65.5729L53.1692 64.2469C54.2012 64.1585 55.0939 64.8756 55.6238 65.7659C55.8592 66.1618 56.1301 66.3939 56.4778 66.4965C56.8139 66.5955 57.1748 66.548 57.5954 66.3994C57.7009 65.5575 58.0866 65.2424 58.378 64.7986V64.7979C55.4191 64.3566 54.2398 62.7868 53.7718 61.5478C53.1516 59.9026 53.4844 57.8473 54.5811 56.5485C54.6024 56.5232 54.6409 56.4569 54.626 56.4107C54.1231 54.8917 54.7359 53.6351 54.7584 53.5018C55.3388 53.6734 55.4331 53.3292 57.2794 54.4509L57.5985 54.6426C57.732 54.7221 57.69 54.6767 57.8235 54.6667C58.5943 54.4573 59.407 54.3417 60.2076 54.3313C61.0144 54.3417 61.8218 54.4573 62.6245 54.6752L62.7278 54.6856C62.7188 54.6842 62.7559 54.679 62.8182 54.6419C65.1245 53.2449 65.0416 53.7015 65.6601 53.5004C65.6825 53.6339 66.2871 54.9109 65.7896 56.4107C65.7225 56.6173 67.7891 58.5096 66.6436 61.5473C66.1756 62.7868 64.9965 64.3566 62.0376 64.7979V64.7986C62.4169 65.3767 62.8726 65.6842 62.8702 66.8768V71.5683C67.8317 70.3694 71.5678 65.5327 71.5678 60.2082C71.5679 53.9686 66.4474 48.8481 60.2078 48.8481V48.8481Z" fill="black"/>
<path d="M64.7568 83.4525C52.9523 86.701 40.7493 79.765 37.5008 67.9605" stroke="black" stroke-width="1.42448" stroke-linecap="round"/>
<circle cx="34.5666" cy="57.8053" r="1.69158" fill="black"/>
<path d="M46.9494 51.0381C52.0204 50.9884 56.116 46.8622 56.116 41.7794C56.116 36.6657 51.9705 32.5203 46.8568 32.5203C41.7431 32.5203 37.5977 36.6657 37.5977 41.7794V51.0386H46.9494V51.0381Z" fill="black"/>
<circle cx="79.5244" cy="81.9326" r="3.02703" fill="#4DA2E6" stroke="black" stroke-width="1.42448"/>
<rect x="72.8787" y="56.1092" width="14.0198" height="14.0198" fill="#3FD05A" stroke="black" stroke-width="0.890303"/>
<mask id="mask0_4703_1780" style="mask-type:alpha" maskUnits="userSpaceOnUse" x="72" y="55" width="16" height="16">
<rect x="72.8787" y="56.1092" width="14.0198" height="14.0198" fill="#3FD05A" stroke="black" stroke-width="0.890303"/>
</mask>
<g mask="url(#mask0_4703_1780)">
<path fill-rule="evenodd" clip-rule="evenodd" d="M74.6445 53.9703L74.1682 54.4465L89.3611 69.6394L89.8373 69.1631L74.6445 53.9703ZM67.9768 60.6382L68.4531 60.1619L83.6459 75.3548L83.1697 75.831L67.9768 60.6382ZM65.9765 62.6387L65.5002 63.115L80.6931 78.3079L81.1694 77.8316L65.9765 62.6387ZM67.2187 61.4005L66.7424 61.8768L81.9353 77.0696L82.4116 76.5934L67.2187 61.4005ZM69.6953 58.9236L69.219 59.3999L84.4119 74.5928L84.8881 74.1165L69.6953 58.9236ZM70.4573 58.1618L70.9335 57.6855L86.1264 72.8784L85.6501 73.3547L70.4573 58.1618ZM72.1679 56.4473L71.6917 56.9235L86.8845 72.1164L87.3608 71.6401L72.1679 56.4473ZM72.9299 55.6851L73.4062 55.2089L88.5991 70.4017L88.1228 70.878L72.9299 55.6851ZM75.4104 53.2081L75.8867 52.7319L91.0795 67.9247L90.6033 68.401L75.4104 53.2081ZM77.121 51.4943L76.6448 51.9706L91.8376 67.1634L92.3139 66.6872L77.121 51.4943ZM77.887 50.7317L78.3632 50.2555L93.5561 65.4484L93.0798 65.9246L77.887 50.7317ZM79.6015 49.0175L79.1252 49.4938L94.3181 64.6866L94.7944 64.2104L79.6015 49.0175ZM80.3635 48.2557L80.8398 47.7794L96.0327 62.9723L95.5564 63.4485L80.3635 48.2557ZM82.0781 46.5408L81.6018 47.0171L96.7947 62.21L97.2709 61.7337L82.0781 46.5408Z" fill="black"/>
</g>
<path d="M14.0869 46.1647C14.4991 45.5236 15.2851 45.1956 16.1039 45.4701C17.1169 45.8098 17.5121 46.7593 17.0366 48.1774L16.3262 50.2961L10.4174 48.3148L11.0995 46.2805C11.292 45.7065 11.5855 45.3072 11.9688 45.0883C12.3521 44.8694 12.7604 44.8279 13.174 44.9666C13.7311 45.1534 14.0373 45.5565 14.0869 46.1647ZM12.0363 46.7073L11.7589 47.5345L13.1348 47.9959L13.4122 47.1686C13.5849 46.6537 13.4054 46.2649 12.9664 46.1177C12.5528 45.979 12.2089 46.1924 12.0363 46.7073ZM15.7262 48.8648L16.0489 47.9025C16.2952 47.1681 16.1299 46.7089 15.5474 46.5136C15.0156 46.3353 14.5591 46.5766 14.3015 47.3448L13.9874 48.2817L15.7262 48.8648Z" fill="white"/>
<path d="M17.7437 40.5202L14.222 38.7845L14.7376 37.7384L18.2513 39.4702C18.9221 39.8008 19.3508 40.2602 19.5334 40.8564C19.7199 41.4446 19.6636 42.0422 19.3606 42.6571C19.0575 43.272 18.6139 43.6886 18.0299 43.907C17.4498 44.1173 16.8243 44.0572 16.1535 43.7266L12.6398 41.9948L13.1554 40.9487L16.6771 42.6844C17.4757 43.078 18.0792 42.7799 18.3783 42.173C18.6735 41.574 18.5503 40.9178 17.7437 40.5202Z" fill="white"/>
<path d="M15.9384 35.7144L16.5622 34.7289L21.8281 38.062L21.2044 39.0475L15.9384 35.7144Z" fill="white"/>
<path d="M18.5623 31.8112L22.652 34.9492L24.1912 32.9432L25.0459 33.5989L22.7967 36.5303L17.8524 32.7365L18.5623 31.8112Z" fill="white"/>
<path d="M21.4521 28.1362L22.9614 26.6237C23.584 25.9998 24.3265 25.6842 25.1764 25.677C26.0325 25.6635 26.7631 25.9649 27.3744 26.5749C27.9983 27.1975 28.3139 27.94 28.3148 28.7962C28.3157 29.6524 28.0017 30.3956 27.3729 31.0258L25.8636 32.5383L21.4521 28.1362ZM25.9059 30.9329L26.5851 30.2523C27.019 29.8174 27.22 29.3388 27.1943 28.8226C27.1685 28.2938 26.9477 27.8219 26.538 27.4131C26.141 27.0169 25.6875 26.816 25.165 26.7976C24.6487 26.773 24.1705 26.975 23.7366 27.4098L23.0574 28.0904L25.9059 30.9329Z" fill="white"/>
<path d="M26.8973 22.959L27.8067 22.2288L31.7082 27.0886L30.7988 27.8188L26.8973 22.959Z" fill="white"/>
<path d="M34.0467 25.2995L33.063 25.9262L29.7147 20.67L30.6983 20.0433L35.5187 22.0923L35.5713 22.0588L33.2513 18.417L34.235 17.7904L37.5834 23.0466L36.5997 23.6732L31.7793 21.6243L31.7267 21.6577L34.0467 25.2995Z" fill="white"/>
<path d="M40.6575 17.8714L43.0653 16.8224C44.16 18.6665 43.3906 20.4001 41.876 21.0696C41.0598 21.4252 40.2451 21.45 39.4238 21.1474C38.6025 20.8448 38.011 20.2674 37.6412 19.4185C37.2749 18.5778 37.263 17.7479 37.6007 16.9404C37.9348 16.1247 38.5077 15.545 39.3158 15.1929C40.0667 14.8658 40.8029 14.817 41.5208 15.0383L41.196 16.0538C40.7114 15.9445 40.251 15.98 39.8184 16.1684C39.2797 16.4031 38.9009 16.7818 38.6936 17.3091C38.4863 17.8364 38.5059 18.3717 38.7512 18.9349C38.9966 19.4981 39.3753 19.8769 39.8863 20.0913C40.3973 20.3057 40.9244 20.2897 41.4549 20.0586C42.3528 19.6674 42.6938 19.0236 42.4734 18.1388L41.045 18.761L40.6575 17.8714Z" fill="white"/>
<path d="M46.7538 12.6341L51.0213 11.7289L51.2449 12.7827L49.6772 13.1152L50.7468 18.1579L49.6059 18.3999L48.5363 13.3572L46.9773 13.6879L46.7538 12.6341Z" fill="white"/>
<path d="M57.2581 13.6479L57.0649 11.0644L58.228 10.9774L58.6926 17.1922L57.5295 17.2791L57.3384 14.7222L54.6749 14.9213L54.8661 17.4783L53.703 17.5652L53.2384 11.3504L54.4014 11.2635L54.5946 13.8471L57.2581 13.6479Z" fill="white"/>
<path d="M61.6796 14.6512L61.585 16.1796L64.2952 16.3475L64.2286 17.4227L60.3543 17.1827L60.7396 10.9625L64.5339 11.1976L64.4673 12.2728L61.8371 12.1098L61.7446 13.6027L63.7439 13.7265L63.679 14.7751L61.6796 14.6512Z" fill="white"/>
<path d="M77.188 13.9565L78.3658 14.3065L74.6364 19.6998L73.8427 19.4639L73.6005 14.9339L70.9325 18.5993L70.1388 18.3634L69.9595 11.8087L71.1372 12.1587L71.1972 16.4581L73.7316 12.9295L74.5936 13.1857L74.7901 17.5257L77.188 13.9565Z" fill="white"/>
<path d="M79.9222 19.0622L79.2505 20.4383L81.6907 21.6294L81.2182 22.5975L77.7298 20.8948L80.4635 15.2943L83.8799 16.9618L83.4073 17.9299L81.0391 16.7739L80.383 18.1181L82.1832 18.9968L81.7224 19.9409L79.9222 19.0622Z" fill="white"/>
<path d="M87.0725 22.1612C87.5885 22.7223 87.7069 23.5658 87.2341 24.2884C86.6491 25.1824 85.6305 25.3246 84.3789 24.5056L82.509 23.2821L85.9211 18.0671L87.7166 19.2419C88.2232 19.5733 88.5352 19.9583 88.65 20.3845C88.7647 20.8107 88.7016 21.2163 88.4627 21.5813C88.141 22.073 87.6735 22.2672 87.0725 22.1612ZM87.0666 20.0401L86.3365 19.5624L85.542 20.7768L86.2721 21.2545C86.7265 21.5518 87.1481 21.4766 87.4016 21.0892C87.6404 20.7241 87.5211 20.3375 87.0666 20.0401ZM84.0455 23.0639L84.8948 23.6196C85.5429 24.0437 86.029 24 86.3654 23.486C86.6725 23.0166 86.5545 22.5139 85.8766 22.0703L85.0496 21.5292L84.0455 23.0639Z" fill="white"/>
<path d="M88.059 25.4854L89.0823 25.661C88.9209 26.2855 89.0533 26.7869 89.4853 27.1585C89.6136 27.2688 89.7592 27.3588 89.9155 27.4228C90.2408 27.5499 90.7353 27.4938 91.1068 27.0618C91.3855 26.7378 91.4595 26.3787 91.3163 25.9854C91.1789 25.5854 90.8444 25.2507 90.307 24.9881L92.6723 24.2042L90.8702 22.6541L91.5204 21.8981L94.5847 24.5339L91.9702 25.3618C92.2854 25.6916 92.4421 26.0965 92.4519 26.5629C92.4617 27.0294 92.3104 27.4511 91.991 27.8224C91.5672 28.3151 91.0559 28.5682 90.4621 28.5623C89.8749 28.5623 89.3287 28.3508 88.8225 27.9154C88.0463 27.2477 87.8007 26.3318 88.059 25.4854Z" fill="white"/>
<path d="M102.927 34.3601L103.65 35.3535L97.4115 37.3718L96.9243 36.7023L99.484 32.9569L95.138 34.2475L94.6509 33.578L98.4905 28.2626L99.2134 29.2561L96.649 32.7076L100.806 31.4445L101.335 32.1716L98.8544 35.7383L102.927 34.3601Z" fill="white"/>
<path d="M101.767 45.5666L101.232 44.4409L102.108 43.4827L100.85 40.8372L99.5547 40.9108L99.0236 39.7931L105.776 39.4822L106.269 40.5195L101.767 45.5666ZM104.73 40.6201L101.887 40.7783L102.808 42.7162L104.73 40.6201Z" fill="white"/>
<path d="M109.4 49.064L109.775 50.3365L105.564 49.1175L103.13 49.8345L102.8 48.7158L105.234 47.9987L108.111 44.6915L108.484 45.9554L106.448 48.2444L109.4 49.064Z" fill="white"/>
<rect x="66.0898" y="28.0966" width="6.32115" height="6.14309" transform="rotate(45 66.0898 28.0966)" fill="#4DA2E6" stroke="black" stroke-width="1.42448"/>
<path d="M25.7269 93.9364L24.9769 94.7583L26.7639 96.3889L25.923 97.3104L23.1336 94.7651L27.1107 90.4065L29.8442 92.9007L29.0033 93.8223L27.2723 92.2428L26.5507 93.0335L27.8458 94.2153L27.022 95.1182L25.7269 93.9364Z" fill="#FF791F"/>
<path d="M33.0423 102.588L31.8477 101.781L32.0735 100.754L29.9218 99.3011L29.0533 99.8945L27.8587 99.088L33.1862 95.5655L34.3179 96.3296L33.0423 102.588ZM32.8371 97.3029L30.9076 98.6242L32.3328 99.5864L32.8371 97.3029Z" fill="#FF791F"/>
<path d="M39.6106 105.941L38.3133 105.332L38.0419 103.073L37.3857 102.765L36.5658 104.512L35.3372 103.936L37.8434 98.5944L39.7435 99.4858C40.3464 99.7687 40.7484 100.162 40.9495 100.666C41.1582 101.174 41.1337 101.702 40.8724 102.259C40.543 102.961 39.9606 103.349 39.2594 103.355L39.6106 105.941ZM39.1373 100.579L38.5421 100.3L37.8762 101.72L38.4714 101.999C39.0285 102.26 39.4218 102.156 39.6438 101.683C39.8657 101.21 39.6944 100.841 39.1373 100.579Z" fill="#FF791F"/>
<path d="M45.1097 101.722L43.7303 106.166L45.8716 106.83L45.5017 108.022L42.0643 106.955L43.8137 101.32L45.1097 101.722Z" fill="#FF791F"/>
<path d="M53.4402 103.71L54.9561 103.945L52.1696 107.163L51.8173 109.429L50.4763 109.22L50.8286 106.955L49.1591 103.044L50.675 103.28L51.6988 105.802L53.4402 103.71Z" fill="#FF791F"/>
<path d="M63.2088 104.069L64.5624 103.973L64.8354 107.798C64.9512 109.421 63.7524 110.03 62.794 110.099C62.0457 110.152 61.4115 109.91 60.8921 109.381L61.6741 108.379C62.0085 108.684 62.3478 108.821 62.701 108.796C62.8607 108.784 63.0018 108.749 63.1946 108.608C63.3874 108.468 63.4997 108.147 63.4679 107.701L63.2088 104.069Z" fill="#FF791F"/>
<path d="M67.5946 104.428C68.0521 103.744 68.6949 103.303 69.5248 103.113C70.3548 102.923 71.1253 103.041 71.8346 103.458C72.5439 103.875 72.9949 104.524 73.1922 105.387C73.3895 106.25 73.2653 107.031 72.8078 107.715C72.3502 108.399 71.7074 108.84 70.8775 109.029C70.0476 109.219 69.277 109.101 68.5677 108.684C67.8584 108.267 67.4074 107.618 67.2101 106.755C67.0129 105.892 67.137 105.112 67.5946 104.428ZM69.3262 107.577C69.7035 107.828 70.1254 107.896 70.5938 107.789C71.0622 107.681 71.4127 107.437 71.6435 107.047C71.8742 106.657 71.9345 106.202 71.8199 105.701C71.7053 105.2 71.4553 104.825 71.078 104.574C70.7007 104.323 70.2769 104.247 69.8085 104.354C69.3401 104.461 68.9915 104.713 68.7607 105.103C68.53 105.493 68.476 105.938 68.5906 106.439C68.7052 106.941 68.9489 107.326 69.3262 107.577Z" fill="#FF791F"/>
<path d="M74.6794 101.814L75.9522 101.343L77.9993 106.877L76.7265 107.348L74.6794 101.814Z" fill="#FF791F"/>
<path d="M82.0699 105.219L80.8651 105.844L78.1496 100.605L79.3545 99.9808L83.2352 102.137L83.2875 102.11L81.5846 98.8248L82.7894 98.2003L85.5049 103.439L84.3 104.063L80.4193 101.907L80.367 101.934L82.0699 105.219Z" fill="#FF791F"/>
<path d="M88.0397 99.0553L88.6924 99.9564L90.6516 98.5373L91.3834 99.5476L88.3252 101.763L84.8639 96.9843L87.8607 94.8135L88.5925 95.8239L86.6948 97.1985L87.3228 98.0654L88.7427 97.037L89.4596 98.0268L88.0397 99.0553Z" fill="#FF791F"/>
<path d="M97.1429 94.4841L96.1059 95.473L93.9015 94.9079L93.3769 95.4082L94.709 96.8051L93.7269 97.7417L89.6548 93.4717L91.1737 92.0232C91.6557 91.5636 92.1679 91.3313 92.7106 91.3263C93.2594 91.3155 93.7432 91.5297 94.1678 91.975C94.703 92.5362 94.8537 93.2194 94.6056 93.8753L97.1429 94.4841ZM91.9737 92.9842L91.4979 93.4379L92.5799 94.5725L93.0557 94.1188C93.501 93.6941 93.5464 93.2898 93.1857 92.9116C92.825 92.5334 92.419 92.5595 91.9737 92.9842Z" fill="#FF791F"/>
</svg>
