<svg width="12" height="14" viewBox="0 0 12 14" fill="none" xmlns="http://www.w3.org/2000/svg">
<path d="M11.2914 4.78634C11.284 4.76501 11.278 4.74434 11.2694 4.72367C11.2377 4.65132 11.1935 4.58517 11.1387 4.52834L7.13869 0.528341C7.08185 0.473529 7.01571 0.429282 6.94335 0.397674C6.92335 0.388341 6.90202 0.383008 6.88069 0.375674C6.8249 0.356692 6.76683 0.345257 6.70802 0.341674C6.69335 0.340341 6.68069 0.333008 6.66669 0.333008H2.00002C1.26469 0.333008 0.666687 0.931008 0.666687 1.66634V12.333C0.666687 13.0683 1.26469 13.6663 2.00002 13.6663H10C10.7354 13.6663 11.3334 13.0683 11.3334 12.333V4.99967C11.3334 4.98567 11.326 4.97301 11.3247 4.95834C11.3213 4.89978 11.3101 4.84194 11.2914 4.78634ZM9.05735 4.33301H7.33335V2.60901L9.05735 4.33301ZM2.00002 12.333V1.66634H6.00002V4.99967C6.00002 5.17649 6.07026 5.34605 6.19528 5.47108C6.32031 5.5961 6.48988 5.66634 6.66669 5.66634H10L10.0014 12.333H2.00002Z" fill="black"/>
</svg>
