<svg width="16" height="16" viewBox="0 0 16 16" fill="none" xmlns="http://www.w3.org/2000/svg">
<path opacity="0.5" fill-rule="evenodd" clip-rule="evenodd" d="M3.42959 5.65689C4.73316 5.39184 5.71429 4.23902 5.71429 2.85715C5.71429 1.27922 4.43507 0 2.85715 0C1.27922 0 0 1.27922 0 2.85715C0 4.23968 0.982009 5.39298 2.2866 5.65728C2.28838 5.95345 2.29361 6.2097 2.30879 6.4324C2.33252 6.78022 2.38252 7.08788 2.50318 7.37908C2.79323 8.07919 3.34935 8.63534 4.04947 8.92536C4.34067 9.04603 4.64832 9.09603 4.99614 9.11975C5.3344 9.14284 5.7501 9.14284 6.2654 9.14284H7.42854V10.2857C7.42854 10.3048 7.42943 10.3237 7.43134 10.3423C6.12574 10.606 5.14282 11.7595 5.14282 13.1429C5.14282 14.7208 6.42204 16 7.99997 16C9.57789 16 10.8571 14.7208 10.8571 13.1429C10.8571 11.7596 9.87419 10.606 8.56859 10.3423C8.5705 10.3237 8.57139 10.3048 8.57139 10.2857V9.14284H9.73453C10.2498 9.14284 10.6655 9.14284 11.0038 9.11975C11.3516 9.09603 11.6593 9.04603 11.9505 8.92536C12.6506 8.63531 13.2067 8.07919 13.4968 7.37908C13.6174 7.08788 13.6674 6.78022 13.6911 6.4324C13.7063 6.20969 13.7115 5.95344 13.7133 5.65728C15.0179 5.39299 15.9999 4.23968 15.9999 2.85715C15.9999 1.27922 14.7207 0 13.1428 0C11.5649 0 10.2856 1.27922 10.2856 2.85715C10.2856 4.23902 11.2668 5.39184 12.5703 5.65689C12.5687 5.93852 12.564 6.16376 12.551 6.35458C12.5312 6.64425 12.4942 6.813 12.4409 6.94169C12.2669 7.3617 11.9331 7.69552 11.5131 7.86949C11.3844 7.92281 11.2156 7.9598 10.926 7.97957C10.6312 7.99972 10.2546 7.99998 9.71425 7.99998H6.28568C5.74536 7.99998 5.36871 7.99972 5.07395 7.97957C4.78428 7.9598 4.61553 7.92281 4.48685 7.86949C4.06683 7.69551 3.73302 7.3617 3.55904 6.94169C3.50573 6.81299 3.46874 6.64424 3.44897 6.35458C3.43596 6.16377 3.43124 5.93852 3.42958 5.65689H3.42959Z" fill="black"/>
</svg>
