<svg width="16" height="17" viewBox="0 0 16 17" fill="none" xmlns="http://www.w3.org/2000/svg">
<path d="M13.9647 5.60695C13.958 5.10203 13.8635 4.60213 13.6854 4.12962C13.5309 3.73105 13.2951 3.36908 12.9928 3.06684C12.6906 2.76459 12.3286 2.52872 11.93 2.37428C11.4636 2.19919 10.9708 2.10451 10.4727 2.09428C9.83138 2.06562 9.62805 2.05762 8.00005 2.05762C6.37205 2.05762 6.16338 2.05762 5.52671 2.09428C5.02882 2.10459 4.53628 2.19926 4.07005 2.37428C3.67142 2.52861 3.30939 2.76445 3.00714 3.06671C2.70488 3.36896 2.46904 3.73099 2.31471 4.12962C2.13927 4.59571 2.0448 5.08836 2.03538 5.58628C2.00671 6.22828 1.99805 6.43162 1.99805 8.05962C1.99805 9.68762 1.99805 9.89562 2.03538 10.533C2.04538 11.0316 2.13938 11.5236 2.31471 11.991C2.4693 12.3895 2.70531 12.7513 3.00767 13.0535C3.31003 13.3556 3.67209 13.5913 4.07071 13.7456C4.53567 13.9277 5.0283 14.0292 5.52738 14.0456C6.16938 14.0743 6.37271 14.0829 8.00071 14.0829C9.62871 14.0829 9.83738 14.0829 10.474 14.0456C10.9721 14.0358 11.465 13.9414 11.9314 13.7663C12.3298 13.6117 12.6917 13.3757 12.9939 13.0735C13.2962 12.7713 13.5321 12.4094 13.6867 12.0109C13.862 11.5443 13.956 11.0523 13.966 10.5529C13.9947 9.91162 14.0034 9.70828 14.0034 8.07962C14.002 6.45162 14.002 6.24495 13.9647 5.60695ZM7.99605 11.1383C6.29338 11.1383 4.91405 9.75895 4.91405 8.05628C4.91405 6.35362 6.29338 4.97428 7.99605 4.97428C8.81344 4.97428 9.59736 5.29899 10.1754 5.87698C10.7533 6.45497 11.078 7.23889 11.078 8.05628C11.078 8.87368 10.7533 9.6576 10.1754 10.2356C9.59736 10.8136 8.81344 11.1383 7.99605 11.1383ZM11.2007 5.57895C11.1063 5.57904 11.0128 5.56051 10.9256 5.52442C10.8384 5.48834 10.7591 5.43541 10.6923 5.36865C10.6256 5.3019 10.5727 5.22264 10.5366 5.13541C10.5005 5.04818 10.482 4.95468 10.482 4.86028C10.482 4.76595 10.5006 4.67254 10.5367 4.58539C10.5728 4.49824 10.6257 4.41905 10.6924 4.35235C10.7591 4.28564 10.8383 4.23273 10.9255 4.19663C11.0126 4.16053 11.106 4.14195 11.2004 4.14195C11.2947 4.14195 11.3881 4.16053 11.4753 4.19663C11.5624 4.23273 11.6416 4.28564 11.7083 4.35235C11.775 4.41905 11.8279 4.49824 11.864 4.58539C11.9001 4.67254 11.9187 4.76595 11.9187 4.86028C11.9187 5.25762 11.5974 5.57895 11.2007 5.57895Z" fill="white"/>
<path d="M7.99602 10.0587C9.10169 10.0587 9.99802 9.16236 9.99802 8.05669C9.99802 6.95101 9.10169 6.05469 7.99602 6.05469C6.89034 6.05469 5.99402 6.95101 5.99402 8.05669C5.99402 9.16236 6.89034 10.0587 7.99602 10.0587Z" fill="white"/>
</svg>
