<svg width="16" height="17" viewBox="0 0 16 17" fill="none" xmlns="http://www.w3.org/2000/svg">
<path d="M7.99337 1.40332C4.31337 1.40332 1.33337 4.38999 1.33337 8.06999C1.33337 11.75 4.31337 14.7367 7.99337 14.7367C11.68 14.7367 14.6667 11.75 14.6667 8.06999C14.6667 4.38999 11.68 1.40332 7.99337 1.40332ZM12.6134 5.40332H10.6467C10.4334 4.56999 10.1267 3.76999 9.72671 3.02999C10.9534 3.44999 11.9734 4.30332 12.6134 5.40332ZM8.00004 2.76332C8.55337 3.56332 8.98671 4.44999 9.27337 5.40332H6.72671C7.01337 4.44999 7.44671 3.56332 8.00004 2.76332ZM2.84004 9.40332C2.73337 8.97665 2.66671 8.52999 2.66671 8.06999C2.66671 7.60999 2.73337 7.16332 2.84004 6.73665H5.09337C5.04004 7.17665 5.00004 7.61665 5.00004 8.06999C5.00004 8.52332 5.04004 8.96332 5.09337 9.40332H2.84004ZM3.38671 10.7367H5.35337C5.56671 11.57 5.87337 12.37 6.27337 13.11C5.04671 12.69 4.02671 11.8433 3.38671 10.7367V10.7367ZM5.35337 5.40332H3.38671C4.02671 4.29665 5.04671 3.44999 6.27337 3.02999C5.87337 3.76999 5.56671 4.56999 5.35337 5.40332V5.40332ZM8.00004 13.3767C7.44671 12.5767 7.01337 11.69 6.72671 10.7367H9.27337C8.98671 11.69 8.55337 12.5767 8.00004 13.3767ZM9.56004 9.40332H6.44004C6.38004 8.96332 6.33337 8.52332 6.33337 8.06999C6.33337 7.61665 6.38004 7.16999 6.44004 6.73665H9.56004C9.62004 7.16999 9.66671 7.61665 9.66671 8.06999C9.66671 8.52332 9.62004 8.96332 9.56004 9.40332ZM9.72671 13.11C10.1267 12.37 10.4334 11.57 10.6467 10.7367H12.6134C11.9734 11.8367 10.9534 12.69 9.72671 13.11V13.11ZM10.9067 9.40332C10.96 8.96332 11 8.52332 11 8.06999C11 7.61665 10.96 7.17665 10.9067 6.73665H13.16C13.2667 7.16332 13.3334 7.60999 13.3334 8.06999C13.3334 8.52999 13.2667 8.97665 13.16 9.40332H10.9067Z" fill="white"/>
</svg>
