<svg width="16" height="17" viewBox="0 0 16 17" fill="none" xmlns="http://www.w3.org/2000/svg">
<path d="M3.32195 4.86851C4.12755 4.86851 4.78061 4.21544 4.78061 3.40984C4.78061 2.60424 4.12755 1.95117 3.32195 1.95117C2.51635 1.95117 1.86328 2.60424 1.86328 3.40984C1.86328 4.21544 2.51635 4.86851 3.32195 4.86851Z" fill="white"/>
<path d="M6.15802 5.97344V14.0661H8.67069V10.0641C8.67069 9.0081 8.86935 7.98544 10.1787 7.98544C11.47 7.98544 11.486 9.19277 11.486 10.1308V14.0668H14V9.62877C14 7.44877 13.5307 5.77344 10.9827 5.77344C9.75936 5.77344 8.93935 6.44477 8.60402 7.0801H8.57002V5.97344H6.15802ZM2.06335 5.97344H4.58002V14.0661H2.06335V5.97344Z" fill="white"/>
</svg>
