<svg width="55" height="53" viewBox="0 0 55 53" fill="none" xmlns="http://www.w3.org/2000/svg">
<path fill-rule="evenodd" clip-rule="evenodd" d="M13.9481 36.2808C16.0778 39.1149 19.0768 41.2074 22.5068 42.2524V53C16.1861 51.8557 10.4741 48.5786 6.36266 43.7376C2.2512 38.8967 0 32.7978 0 26.5C0 20.2022 2.2512 14.1033 6.36266 9.26236C10.4741 4.42145 16.1861 1.14429 22.5068 0V10.7475C19.0768 11.7926 16.0778 13.885 13.9481 16.7192C11.8184 19.5533 10.6695 22.9805 10.6695 26.5C10.6695 30.0194 11.8184 33.4466 13.9481 36.2808ZM32.4932 10.7476V0C38.8139 1.14429 44.5259 4.42145 48.6374 9.26236C52.7488 14.1033 55 20.2022 55 26.5C55 32.7978 52.7488 38.8967 48.6374 43.7376C44.5259 48.5786 38.8139 51.8557 32.4932 53V42.2524C35.9232 41.2074 38.9222 39.1149 41.052 36.2808C43.1817 33.4467 44.3305 30.0195 44.3305 26.5C44.3305 22.9805 43.1817 19.5533 41.052 16.7192C38.9222 13.8851 35.9232 11.7926 32.4932 10.7476Z" fill="#FF791F"/>
</svg>
