<svg width="16" height="16" viewBox="0 0 16 16" fill="none" xmlns="http://www.w3.org/2000/svg">
<path opacity="0.5" fill-rule="evenodd" clip-rule="evenodd" d="M12.5704 10.3431C11.2668 10.6082 10.2856 11.761 10.2856 13.1429C10.2856 14.7208 11.5649 16 13.1428 16C14.7207 16 15.9999 14.7208 15.9999 13.1429C15.9999 11.7603 15.0179 10.607 13.7133 10.3427C13.7116 10.0465 13.7063 9.7903 13.6911 9.5676C13.6674 9.21978 13.6174 8.91212 13.4968 8.62092C13.2067 7.92081 12.6506 7.36466 11.9505 7.07464C11.6593 6.95398 11.3516 6.90397 11.0038 6.88025C10.6655 6.85716 10.2498 6.85716 9.73453 6.85716L8.5714 6.85716L8.5714 5.71431C8.5714 5.69517 8.57051 5.67629 8.56859 5.65767C9.87419 5.39403 10.8571 4.24046 10.8571 2.85715C10.8571 1.27922 9.5779 5.61432e-07 7.99997 6.99379e-07C6.42204 8.37326e-07 5.14283 1.27922 5.14283 2.85715C5.14283 4.24043 6.12575 5.394 7.43135 5.65767C7.42944 5.6763 7.42855 5.69517 7.42855 5.71431L7.42855 6.85716L6.26541 6.85716C5.75011 6.85716 5.33441 6.85716 4.99615 6.88025C4.64833 6.90397 4.34067 6.95398 4.04947 7.07464C3.34936 7.36469 2.79321 7.92081 2.50319 8.62093C2.38252 8.91213 2.33252 9.21978 2.3088 9.5676C2.29362 9.79031 2.28839 10.0466 2.2866 10.3427C0.982015 10.607 7.25875e-06 11.7603 7.37961e-06 13.1429C7.51756e-06 14.7208 1.27923 16 2.85715 16C4.43508 16 5.7143 14.7208 5.7143 13.1429C5.7143 11.761 4.73317 10.6082 3.42959 10.3431C3.43125 10.0615 3.43597 9.83624 3.44898 9.64542C3.46875 9.35575 3.50574 9.187 3.55906 9.05831C3.73304 8.6383 4.06685 8.30448 4.48686 8.13051C4.61556 8.07719 4.78431 8.0402 5.07397 8.02043C5.36874 8.00028 5.74538 8.00002 6.28569 8.00002L9.71426 8.00002C10.2546 8.00002 10.6312 8.00028 10.926 8.02043C11.2157 8.0402 11.3844 8.07719 11.5131 8.13051C11.9331 8.30449 12.2669 8.6383 12.4409 9.05831C12.4942 9.18701 12.5312 9.35576 12.551 9.64542C12.564 9.83623 12.5687 10.0615 12.5704 10.3431L12.5704 10.3431Z" fill="black"/>
</svg>
