<svg width="197" height="52" viewBox="0 0 197 52" fill="none" xmlns="http://www.w3.org/2000/svg">
<path d="M17.914 23.5137C15.8309 22.832 11.9097 22.1906 11.9097 20.0252C11.9097 18.5814 13.1759 17.6593 15.5858 17.6593C18.9759 17.6593 21.7125 19.4636 22.4068 20.7468L26.5731 18.1003C25.552 15.2934 21.345 12.4863 16.2393 12.4863C10.8477 12.4863 5.86474 14.7319 5.86474 20.3058C5.86474 25.9999 12.645 27.2831 14.728 27.9648C16.7703 28.6465 20.9365 29.3683 20.9365 31.5337C20.9365 33.178 20.0379 34.3006 16.8111 34.3006C13.0125 34.3006 9.82667 31.6943 9.05058 30.2106L4.80273 33.178C6.10985 36.3057 10.1126 39.5135 16.2393 39.5135C22.6111 39.5135 26.8183 36.7067 26.8183 31.2933C26.8183 25.8396 19.9154 24.1956 17.914 23.5137Z" fill="#010101"/>
<path d="M75.8755 29.248C75.8755 32.8571 73.5473 34.3006 70.8516 34.3006C68.1557 34.3006 65.8276 32.8572 65.8276 29.248V12.9675H60.5586V29.8096C60.5586 34.9823 64.2346 39.3533 70.8516 39.3533C77.4686 39.3533 81.1445 34.9823 81.1445 29.8096V12.9675H75.8755V29.248Z" fill="#010101"/>
<path d="M106.47 21.5486C106.47 15.9347 102.344 12.9673 98.3824 12.9673H85.6387V39.0322H90.9078V30.13H95.1964L100.915 39.0322H107.001L100.996 29.689C103.978 28.6463 106.47 25.8794 106.47 21.5486ZM97.5246 25.0776H90.9078V17.98H97.5246C99.4852 17.98 101.16 19.3433 101.16 21.5486C101.16 23.714 99.4852 25.0776 97.5246 25.0776Z" fill="#010101"/>
<path d="M122.93 17.8196C125.83 17.8196 128.159 19.2634 129.425 20.9876L133.673 17.8998C131.385 14.6518 127.627 12.647 122.93 12.647C115.047 12.647 109.533 18.2609 109.533 26C109.533 33.7394 115.047 39.3533 122.93 39.3533C127.627 39.3533 131.385 37.3482 133.673 34.1002L129.425 30.8923C128.159 32.5363 125.83 34.1803 122.93 34.1803C118.07 34.1803 114.802 30.7317 114.802 26C114.802 21.2682 118.07 17.8196 122.93 17.8196Z" fill="#010101"/>
<path d="M153.563 25.9902C155.281 24.7183 156.197 22.9074 156.197 20.6879C156.197 14.7564 150.599 12.6519 145.806 12.6519C141.969 12.6519 138.262 14.074 136.582 16.1908L136.416 16.4004L140.023 19.7672L140.228 19.5527C141.151 18.5906 143.29 17.555 145.806 17.555C148.666 17.555 150.514 18.7847 150.514 20.6878C150.514 21.9257 149.638 23.0274 148.281 23.4945C148.031 23.5793 147.775 23.6458 147.515 23.6933H140.796V28.287H147.515C147.775 28.3345 148.031 28.4009 148.281 28.4857C149.638 28.9529 150.514 30.0546 150.514 31.2925C150.514 33.1956 148.666 34.4253 145.806 34.4253C143.29 34.4253 141.151 33.3897 140.228 32.4276L140.023 32.2131L136.416 35.5798L136.582 35.7894C138.262 37.9062 141.969 39.3284 145.806 39.3284C150.599 39.3284 156.197 37.2238 156.197 31.2924C156.197 29.073 155.281 27.2622 153.563 25.9902Z" fill="#010101"/>
<path d="M40.9635 33.9848C39.2457 33.4604 37.7437 32.4103 36.677 30.9881C35.6104 29.5658 35.035 27.8459 35.035 26.0798C35.035 24.3136 35.6104 22.5937 36.677 21.1715C37.7437 19.7492 39.2457 18.6991 40.9635 18.1747V12.7812C37.7979 13.3555 34.9372 15.0001 32.878 17.4294C30.8189 19.8587 29.6914 22.9193 29.6914 26.0798C29.6914 29.2402 30.8189 32.3009 32.878 34.7302C34.9372 37.1595 37.7979 38.8041 40.9635 39.3783V33.9848Z" fill="#010101"/>
<path d="M45.9648 12.7812V18.1747C47.6827 18.6992 49.1847 19.7492 50.2513 21.1715C51.3179 22.5937 51.8933 24.3136 51.8933 26.0798C51.8933 27.846 51.3179 29.5658 50.2513 30.9881C49.1847 32.4104 47.6827 33.4604 45.9648 33.9849V39.3783C49.1304 38.8041 51.9912 37.1595 54.0503 34.7302C56.1095 32.3009 57.2369 29.2402 57.2369 26.0798C57.2369 22.9193 56.1095 19.8587 54.0503 17.4294C51.9912 15.0001 49.1304 13.3555 45.9648 12.7812Z" fill="#010101"/>
<path opacity="0.5" d="M161.275 39L163.865 31.77H165.405L167.99 39H166.535L165.945 37.325H163.345L162.74 39H161.275ZM163.67 36.05H165.595L164.64 33.18L163.67 36.05ZM169.076 31.77H170.546V37.765H173.686V39H169.076V31.77ZM174.847 39V31.77H177.507C178.034 31.77 178.505 31.8617 178.922 32.045C179.339 32.225 179.667 32.4917 179.907 32.845C180.15 33.1983 180.272 33.63 180.272 34.14C180.272 34.62 180.165 35.03 179.952 35.37C179.739 35.71 179.439 35.97 179.052 36.15C178.669 36.33 178.217 36.42 177.697 36.42H176.317V39H174.847ZM176.302 35.29H177.657C178.024 35.29 178.324 35.1733 178.557 34.94C178.79 34.7033 178.907 34.4117 178.907 34.065C178.907 33.705 178.784 33.42 178.537 33.21C178.29 32.9967 177.99 32.89 177.637 32.89H176.302V35.29ZM185.991 35.895H182.826V39H181.371V31.77H182.826V34.67H185.991V31.77H187.451V39H185.991V35.895ZM188.531 39L191.121 31.77H192.661L195.246 39H193.791L193.201 37.325H190.601L189.996 39H188.531ZM190.926 36.05H192.851L191.896 33.18L190.926 36.05Z" fill="black"/>
</svg>
