<svg width="153" height="28" viewBox="0 0 153 28" fill="none" xmlns="http://www.w3.org/2000/svg">
<path d="M13.9145 11.5137C11.8314 10.832 7.91021 10.1906 7.91021 8.02519C7.91021 6.58143 9.17641 5.65931 11.5863 5.65931C14.9764 5.65931 17.713 7.46361 18.4073 8.74679L22.5736 6.10027C21.5524 3.29343 17.3455 0.486328 12.2398 0.486328C6.84819 0.486328 1.86523 2.73185 1.86523 8.30584C1.86523 13.9999 8.64547 15.2831 10.7285 15.9648C12.7708 16.6465 16.937 17.3683 16.937 19.5337C16.937 21.178 16.0384 22.3006 12.8116 22.3006C9.013 22.3006 5.82716 19.6943 5.05107 18.2106L0.803223 21.178C2.11034 24.3057 6.11309 27.5135 12.2398 27.5135C18.6116 27.5135 22.8188 24.7067 22.8188 19.2933C22.8188 13.8396 15.9159 12.1956 13.9145 11.5137Z" fill="#010101"/>
<path d="M71.8758 17.2483C71.8758 20.8574 69.5476 22.3009 66.8519 22.3009C64.156 22.3009 61.828 20.8574 61.828 17.2483V0.967773H56.5589V17.8098C56.5589 22.9826 60.2349 27.3535 66.8519 27.3535C73.4689 27.3535 77.1448 22.9825 77.1448 17.8098V0.967773H71.8758V17.2483Z" fill="#010101"/>
<path d="M102.469 9.54912C102.469 3.93518 98.3442 0.967773 94.3822 0.967773H81.6385V27.0326H86.9076V18.1305H91.1962L96.9146 27.0326H103.001L96.9963 17.6895C99.978 16.6468 102.469 13.8799 102.469 9.54912ZM93.5244 13.0781H86.9076V5.98046H93.5244C95.485 5.98046 97.1597 7.34379 97.1597 9.54912C97.1597 11.7145 95.485 13.0781 93.5244 13.0781Z" fill="#010101"/>
<path d="M118.931 5.81915C121.831 5.81915 124.159 7.2629 125.425 8.9871L129.673 5.89935C127.386 2.65129 123.628 0.646484 118.931 0.646484C111.048 0.646484 105.534 6.26042 105.534 13.9995C105.534 21.7389 111.048 27.3528 118.931 27.3528C123.628 27.3528 127.386 25.3477 129.673 22.0997L125.425 18.8918C124.159 20.5358 121.831 22.1798 118.931 22.1798C114.071 22.1798 110.803 18.7313 110.803 13.9995C110.803 9.26775 114.071 5.81915 118.931 5.81915Z" fill="#010101"/>
<path d="M149.563 13.9897C151.281 12.7178 152.197 10.9069 152.197 8.68738C152.197 2.75595 146.599 0.651367 141.806 0.651367C137.969 0.651367 134.262 2.07354 132.582 4.19029L132.416 4.39992L136.023 7.7667L136.228 7.5522C137.151 6.5901 139.29 5.55455 141.806 5.55455C144.666 5.55455 146.514 6.78422 146.514 8.68734C146.514 9.92521 145.638 11.027 144.281 11.4941C144.031 11.5788 143.775 11.6453 143.515 11.6928H136.796V16.2865H143.515C143.775 16.334 144.031 16.4004 144.281 16.4852C145.638 16.9524 146.514 18.0541 146.514 19.292C146.514 21.1951 144.666 22.4248 141.806 22.4248C139.29 22.4248 137.151 21.3892 136.228 20.4271L136.023 20.2126L132.416 23.5794L132.582 23.7889C134.262 25.9057 137.969 27.3279 141.806 27.3279C146.599 27.3279 152.197 25.2233 152.197 19.292C152.197 17.0726 151.281 15.2617 149.563 13.9897Z" fill="#010101"/>
<path d="M36.9635 21.9848C35.2457 21.4604 33.7437 20.4103 32.677 18.9881C31.6104 17.5658 31.035 15.8459 31.035 14.0798C31.035 12.3136 31.6104 10.5937 32.677 9.17146C33.7437 7.7492 35.2457 6.69913 36.9635 6.1747V0.78125C33.7979 1.35549 30.9372 3.00007 28.878 5.4294C26.8189 7.85872 25.6914 10.9193 25.6914 14.0798C25.6914 17.2402 26.8189 20.3009 28.878 22.7302C30.9372 25.1595 33.7979 26.8041 36.9635 27.3783V21.9848Z" fill="#010101"/>
<path d="M41.965 0.78125V6.17472C43.6829 6.69915 45.1849 7.74922 46.2515 9.17148C47.3181 10.5937 47.8935 12.3136 47.8935 14.0798C47.8935 15.846 47.3181 17.5658 46.2515 18.9881C45.1849 20.4104 43.6829 21.4604 41.965 21.9849V27.3783C45.1306 26.8041 47.9914 25.1595 50.0505 22.7302C52.1096 20.3009 53.2371 17.2402 53.2371 14.0798C53.2371 10.9193 52.1096 7.85872 50.0505 5.4294C47.9914 3.00007 45.1306 1.35549 41.965 0.78125Z" fill="#010101"/>
</svg>
