<svg width="254" height="47" viewBox="0 0 254 47" fill="none" xmlns="http://www.w3.org/2000/svg">
<path fill-rule="evenodd" clip-rule="evenodd" d="M20.7727 18.7343L20.7726 18.7343C17.2703 17.7466 12.8257 16.4932 12.8257 13.5037C12.8257 11.0882 14.9334 9.54541 18.9448 9.54541C24.5881 9.54541 29.1434 12.5642 30.2991 14.711L37.2344 10.2832C35.5345 5.58713 28.5316 0.890625 20.0326 0.890625C11.0579 0.890625 2.76324 4.64756 2.76324 13.9733C2.76324 22.4901 11.7838 25.1088 16.1737 26.3831L16.1739 26.3832L16.1749 26.3835L16.1753 26.3836L16.1755 26.3836C16.6952 26.5345 17.1499 26.6665 17.517 26.7873C18.1179 26.9889 18.8293 27.1926 19.5932 27.4113L19.5935 27.4114L19.5936 27.4114C23.1519 28.4303 27.8516 29.776 27.8516 32.7584C27.8516 35.5093 26.3559 37.3876 20.9846 37.3876C14.6614 37.3876 9.35824 33.027 8.06637 30.5446L0.995422 35.5094C3.17125 40.7422 9.8342 46.1092 20.0327 46.1092C30.6392 46.1092 37.6424 41.4132 37.6424 32.3561C37.6424 24.0402 28.098 21.0187 23.8846 19.6848L23.8843 19.6847C23.4747 19.555 23.1156 19.4413 22.8204 19.3402C22.2143 19.1409 21.5146 18.9436 20.7727 18.7343ZM119.302 28.9351C119.302 34.9734 115.427 37.3885 110.94 37.3885C106.452 37.3885 102.577 34.9734 102.577 28.9351V1.69654H93.8059V29.8746C93.8059 38.529 99.925 45.8419 110.94 45.8419C121.954 45.8419 128.073 38.5289 128.073 29.8746V1.69654H119.302V28.9351ZM156.767 1.69654C163.362 1.69654 170.229 6.66124 170.229 16.0538C170.229 23.2995 166.081 27.9287 161.118 29.6733L171.113 45.3051H160.982L151.463 30.411H144.324V45.3051H135.553V1.69654H156.767ZM144.324 21.958H155.339C158.602 21.958 161.39 19.6766 161.39 16.0538C161.39 12.3641 158.602 10.0831 155.339 10.0831H144.324V21.958ZM197.631 9.81434C202.458 9.81434 206.334 12.2298 208.441 15.1146L215.512 9.94851C211.705 4.51426 205.45 1.16007 197.631 1.16007C184.509 1.16007 175.33 10.5526 175.33 23.5007C175.33 36.4493 184.509 45.8418 197.631 45.8418C205.45 45.8418 211.705 42.4872 215.512 37.0529L208.441 31.6859C206.334 34.4365 202.458 37.187 197.631 37.187C189.54 37.187 184.101 31.4173 184.101 23.5007C184.101 15.5841 189.54 9.81434 197.631 9.81434ZM253.005 14.6122C253.005 18.3257 251.48 21.3555 248.621 23.4835C251.48 25.6115 253.005 28.6413 253.004 32.3545C253.004 42.2781 243.687 45.7992 235.708 45.7992C229.321 45.7992 223.151 43.4199 220.354 39.8783L220.078 39.5277L226.081 33.8949L226.424 34.2537C227.959 35.8634 231.52 37.596 235.708 37.596C240.469 37.596 243.545 35.5386 243.545 32.3546C243.545 30.2835 242.086 28.4402 239.828 27.6585C239.412 27.5168 238.986 27.4056 238.553 27.3261H227.369V19.6405H238.553C238.986 19.561 239.412 19.4499 239.828 19.308C242.087 18.5265 243.545 16.6832 243.545 14.6122C243.545 11.4281 240.469 9.37076 235.708 9.37076C231.52 9.37076 227.959 11.1033 226.424 12.713L226.081 13.0719L220.078 7.43897L220.354 7.08824C223.151 3.54675 229.321 1.16735 235.708 1.16735C243.687 1.16735 253.005 4.68848 253.005 14.6122ZM61.1877 36.8586C58.3282 35.9812 55.828 34.2244 54.0525 31.8448C52.277 29.4653 51.3192 26.5878 51.3192 23.6328C51.3192 20.6779 52.277 17.8004 54.0525 15.4209C55.828 13.0413 58.3282 11.2845 61.1877 10.407V1.3834C55.9183 2.34415 51.1563 5.09566 47.7286 9.1601C44.301 13.2246 42.4242 18.3452 42.4242 23.6329C42.4242 28.9205 44.301 34.0412 47.7286 38.1056C51.1563 42.1701 55.9183 44.9216 61.1877 45.8824V36.8586ZM69.5133 10.4071V1.3834C74.7828 2.34415 79.5448 5.09566 82.9724 9.1601C86.4 13.2246 88.2768 18.3452 88.2768 23.6329C88.2768 28.9205 86.4 34.0412 82.9724 38.1056C79.5448 42.1701 74.7828 44.9216 69.5133 45.8824V36.8587C72.3729 35.9813 74.8731 34.2244 76.6486 31.8449C78.4241 29.4653 79.3818 26.5878 79.3818 23.6329C79.3818 20.6779 78.4241 17.8004 76.6486 15.4209C74.8731 13.0414 72.3729 11.2845 69.5133 10.4071Z" fill="white"/>
</svg>
