<svg width="16" height="17" viewBox="0 0 16 17" fill="none" xmlns="http://www.w3.org/2000/svg">
<path d="M13.0886 5.402C13.0973 5.51867 13.0973 5.63467 13.0973 5.75067C13.0973 9.30067 10.3953 13.3913 5.45725 13.3913C3.93592 13.3913 2.52259 12.9507 1.33325 12.1853C1.54925 12.21 1.75725 12.2187 1.98192 12.2187C3.19058 12.2216 4.36502 11.8174 5.31592 11.0713C4.75553 11.0612 4.2123 10.8763 3.76208 10.5425C3.31185 10.2087 2.97711 9.7426 2.80459 9.20933C2.97059 9.234 3.13725 9.25067 3.31192 9.25067C3.55259 9.25067 3.79459 9.21733 4.01925 9.15933C3.41109 9.03654 2.86423 8.7069 2.47166 8.22646C2.07909 7.74601 1.86505 7.14443 1.86592 6.524V6.49067C2.22392 6.69 2.63925 6.81467 3.07925 6.83133C2.71064 6.58639 2.4084 6.25402 2.19948 5.86386C1.99056 5.47371 1.88146 5.0379 1.88192 4.59533C1.88192 4.09667 2.01459 3.63933 2.24725 3.24067C2.92201 4.07068 3.76359 4.74971 4.71748 5.23377C5.67136 5.71784 6.71629 5.99614 7.78459 6.05067C7.74325 5.85067 7.71792 5.64333 7.71792 5.43533C7.71774 5.08264 7.78708 4.73337 7.92197 4.40749C8.05686 4.08161 8.25465 3.78552 8.50404 3.53613C8.75344 3.28673 9.04953 3.08894 9.37541 2.95405C9.70129 2.81916 10.0506 2.74983 10.4033 2.75C11.1766 2.75 11.8746 3.074 12.3653 3.598C12.9664 3.48175 13.5429 3.26228 14.0693 2.94933C13.8689 3.56988 13.4491 4.09607 12.8886 4.42933C13.4218 4.36852 13.9429 4.2283 14.4346 4.01333C14.0673 4.54873 13.6123 5.01823 13.0886 5.402Z" fill="white"/>
</svg>
