<svg xmlns="http://www.w3.org/2000/svg" width="121" height="121" viewBox="0 0 121 121" fill="none" sourc3-extension-installed="true">
    <circle cx="60.7097" cy="60.2078" r="59.0723" fill="white" stroke="black" stroke-width="2.27201"/>
    <circle cx="60.7519" cy="60.0747" r="54.353" fill="black" stroke="black" stroke-width="2.67091"/>
    <circle cx="60.7502" cy="60.0745" r="39.1288" fill="white" stroke="black" stroke-width="1.78061"/>
    <circle cx="60.7539" cy="60.0752" r="18.1177" fill="#FF791F" stroke="black" stroke-width="2.67091"/>
    <path d="M60.7078 48.8477C54.4682 48.8477 49.3477 53.9681 49.3477 60.2077C49.3477 65.5322 53.0839 70.3689 58.0453 71.5678V67.8094C57.5537 67.917 57.1012 67.9202 56.6008 67.7726C55.9295 67.5745 55.3839 67.1273 54.979 66.4454C54.7209 66.0099 54.2635 65.5378 53.7863 65.5724L53.6692 64.2464C54.7012 64.158 55.5939 64.8751 56.1238 65.7654C56.3592 66.1613 56.6301 66.3934 56.9778 66.496C57.3139 66.595 57.6748 66.5475 58.0954 66.3989C58.2009 65.557 58.5866 65.2419 58.878 64.7981V64.7974C55.9191 64.3561 54.7398 62.7863 54.2718 61.5473C53.6516 59.9021 53.9844 57.8468 55.0811 56.548C55.1024 56.5227 55.1409 56.4564 55.126 56.4102C54.6231 54.8912 55.2359 53.6346 55.2584 53.5013C55.8388 53.6729 55.9331 53.3287 57.7794 54.4504L58.0985 54.6421C58.232 54.7217 58.19 54.6762 58.3235 54.6662C59.0943 54.4568 59.907 54.3412 60.7076 54.3308C61.5144 54.3412 62.3218 54.4568 63.1245 54.6747L63.2278 54.6851C63.2188 54.6837 63.2559 54.6785 63.3182 54.6414C65.6245 53.2444 65.5416 53.701 66.1601 53.4999C66.1825 53.6334 66.7871 54.9104 66.2896 56.4102C66.2225 56.6168 68.2891 58.5091 67.1436 61.5468C66.6756 62.7863 65.4965 64.3561 62.5376 64.7974V64.7981C62.9169 65.3762 63.3726 65.6837 63.3702 66.8763V71.5678C68.3317 70.3689 72.0678 65.5322 72.0678 60.2077C72.0679 53.9681 66.9474 48.8477 60.7078 48.8477V48.8477Z" fill="black"/>
    <path d="M65.2568 83.452C53.4523 86.7005 41.2493 79.7645 38.0008 67.96" stroke="black" stroke-width="1.42448" stroke-linecap="round"/>
    <circle cx="35.0666" cy="57.8049" r="1.69158" fill="black"/>
    <path d="M47.4494 51.0379C52.5204 50.9882 56.616 46.862 56.616 41.7792C56.616 36.6655 52.4705 32.52 47.3568 32.52C42.2431 32.52 38.0977 36.6655 38.0977 41.7792V51.0383H47.4494V51.0379Z" fill="black"/>
    <circle cx="80.0244" cy="81.9326" r="3.02703" fill="#4DA2E6" stroke="black" stroke-width="1.42448"/>
    <rect x="73.3787" y="56.1092" width="14.0198" height="14.0198" fill="#3FD05A" stroke="black" stroke-width="0.890303"/>
    <mask id="mask0_5104_553" style="mask-type:alpha" maskUnits="userSpaceOnUse" x="72" y="55" width="16" height="16">
        <rect x="73.3787" y="56.1092" width="14.0198" height="14.0198" fill="#3FD05A" stroke="black" stroke-width="0.890303"/>
    </mask>
    <g mask="url(#mask0_5104_553)">
        <path fill-rule="evenodd" clip-rule="evenodd" d="M75.1445 53.9703L74.6682 54.4465L89.8611 69.6394L90.3373 69.1631L75.1445 53.9703ZM68.4768 60.6382L68.9531 60.1619L84.1459 75.3548L83.6697 75.831L68.4768 60.6382ZM66.4765 62.6387L66.0002 63.115L81.1931 78.3079L81.6694 77.8316L66.4765 62.6387ZM67.7187 61.4005L67.2424 61.8768L82.4353 77.0696L82.9116 76.5934L67.7187 61.4005ZM70.1953 58.9236L69.719 59.3999L84.9119 74.5928L85.3881 74.1165L70.1953 58.9236ZM70.9573 58.1618L71.4335 57.6855L86.6264 72.8784L86.1501 73.3547L70.9573 58.1618ZM72.6679 56.4473L72.1917 56.9235L87.3845 72.1164L87.8608 71.6401L72.6679 56.4473ZM73.4299 55.6851L73.9062 55.2089L89.0991 70.4017L88.6228 70.878L73.4299 55.6851ZM75.9104 53.2081L76.3867 52.7319L91.5795 67.9247L91.1033 68.401L75.9104 53.2081ZM77.621 51.4943L77.1448 51.9706L92.3376 67.1634L92.8139 66.6872L77.621 51.4943ZM78.387 50.7317L78.8632 50.2555L94.0561 65.4484L93.5798 65.9246L78.387 50.7317ZM80.1015 49.0175L79.6252 49.4938L94.8181 64.6866L95.2944 64.2104L80.1015 49.0175ZM80.8635 48.2557L81.3398 47.7794L96.5327 62.9723L96.0564 63.4485L80.8635 48.2557ZM82.5781 46.5408L82.1018 47.0171L97.2947 62.21L97.7709 61.7337L82.5781 46.5408Z" fill="black"/>
    </g>
    <path d="M14.5869 46.1643C14.9991 45.5231 15.7851 45.1951 16.6039 45.4696C17.6169 45.8093 18.0121 46.7588 17.5366 48.1769L16.8262 50.2956L10.9174 48.3143L11.5995 46.28C11.792 45.706 12.0855 45.3067 12.4688 45.0878C12.8521 44.8689 13.2604 44.8274 13.674 44.9661C14.2311 45.1529 14.5373 45.556 14.5869 46.1643ZM12.5363 46.7068L12.2589 47.534L13.6348 47.9954L13.9122 47.1682C14.0849 46.6532 13.9054 46.2644 13.4664 46.1172C13.0528 45.9785 12.7089 46.1919 12.5363 46.7068ZM16.2262 48.8643L16.5489 47.902C16.7952 47.1677 16.6299 46.7085 16.0474 46.5132C15.5156 46.3348 15.0591 46.5761 14.8015 47.3443L14.4874 48.2813L16.2262 48.8643Z" fill="white"/>
    <path d="M18.2437 40.52L14.722 38.7843L15.2376 37.7382L18.7513 39.4699C19.4221 39.8005 19.8508 40.2599 20.0334 40.8561C20.2199 41.4444 20.1636 42.0419 19.8606 42.6568C19.5575 43.2717 19.1139 43.6884 18.5299 43.9067C17.9498 44.1171 17.3243 44.057 16.6535 43.7264L13.1398 41.9946L13.6554 40.9485L17.1771 42.6842C17.9757 43.0777 18.5792 42.7796 18.8783 42.1727C19.1735 41.5738 19.0503 40.9175 18.2437 40.52Z" fill="white"/>
    <path d="M16.4384 35.7142L17.0622 34.7287L22.3281 38.0618L21.7044 39.0472L16.4384 35.7142Z" fill="white"/>
    <path d="M19.0623 31.8107L23.152 34.9487L24.6912 32.9427L25.5459 33.5985L23.2967 36.5298L18.3524 32.736L19.0623 31.8107Z" fill="white"/>
    <path d="M21.9521 28.1359L23.4614 26.6234C24.084 25.9995 24.8265 25.684 25.6764 25.6768C26.5325 25.6633 27.2631 25.9647 27.8744 26.5747C28.4983 27.1973 28.8139 27.9398 28.8148 28.796C28.8157 29.6521 28.5017 30.3953 27.8729 31.0255L26.3636 32.538L21.9521 28.1359ZM26.4059 30.9327L27.0851 30.252C27.519 29.8172 27.72 29.3385 27.6943 28.8223C27.6685 28.2936 27.4477 27.8216 27.038 27.4129C26.641 27.0167 26.1875 26.8157 25.665 26.7974C25.1487 26.7727 24.6705 26.9747 24.2366 27.4096L23.5574 28.0902L26.4059 30.9327Z" fill="white"/>
    <path d="M27.3973 22.9587L28.3067 22.2286L32.2082 27.0884L31.2988 27.8185L27.3973 22.9587Z" fill="white"/>
    <path d="M34.5467 25.2993L33.563 25.9259L30.2147 20.6697L31.1983 20.0431L36.0187 22.092L36.0713 22.0585L33.7513 18.4167L34.735 17.7901L38.0834 23.0463L37.0997 23.673L32.2793 21.624L32.2267 21.6575L34.5467 25.2993Z" fill="white"/>
    <path d="M41.1575 17.8711L43.5653 16.8222C44.66 18.6662 43.8906 20.3998 42.376 21.0694C41.5598 21.425 40.7451 21.4497 39.9238 21.1472C39.1025 20.8446 38.511 20.2671 38.1412 19.4183C37.7749 18.5776 37.763 17.7476 38.1007 16.9401C38.4348 16.1245 39.0077 15.5447 39.8158 15.1927C40.5667 14.8655 41.3029 14.8167 42.0208 15.0381L41.696 16.0536C41.2114 15.9442 40.751 15.9797 40.3184 16.1682C39.7797 16.4029 39.4009 16.7816 39.1936 17.3089C38.9863 17.8362 39.0059 18.3715 39.2512 18.9347C39.4966 19.4978 39.8753 19.8767 40.3863 20.0911C40.8973 20.3055 41.4244 20.2895 41.9549 20.0583C42.8528 19.6672 43.1938 19.0233 42.9734 18.1385L41.545 18.7608L41.1575 17.8711Z" fill="white"/>
    <path d="M47.2538 12.6338L51.5213 11.7286L51.7449 12.7824L50.1772 13.115L51.2468 18.1576L50.1059 18.3996L49.0363 13.357L47.4773 13.6876L47.2538 12.6338Z" fill="white"/>
    <path d="M57.7581 13.6474L57.5649 11.0639L58.728 10.9769L59.1926 17.1917L58.0295 17.2786L57.8384 14.7217L55.1749 14.9208L55.3661 17.4778L54.203 17.5647L53.7384 11.3499L54.9014 11.263L55.0946 13.8466L57.7581 13.6474Z" fill="white"/>
    <path d="M62.1796 14.6512L62.085 16.1796L64.7952 16.3475L64.7286 17.4227L60.8543 17.1827L61.2396 10.9625L65.0339 11.1976L64.9673 12.2728L62.3371 12.1098L62.2446 13.6027L64.2439 13.7265L64.179 14.7751L62.1796 14.6512Z" fill="white"/>
    <path d="M77.688 13.956L78.8658 14.306L75.1364 19.6993L74.3427 19.4635L74.1005 14.9334L71.4325 18.5988L70.6388 18.3629L70.4595 11.8083L71.6372 12.1582L71.6972 16.4576L74.2316 12.9291L75.0936 13.1852L75.2901 17.5252L77.688 13.956Z" fill="white"/>
    <path d="M80.4222 19.0619L79.7505 20.4381L82.1907 21.6292L81.7182 22.5973L78.2298 20.8946L80.9635 15.294L84.3799 16.9616L83.9073 17.9297L81.5391 16.7737L80.883 18.1178L82.6832 18.9965L82.2224 19.9406L80.4222 19.0619Z" fill="white"/>
    <path d="M87.5725 22.161C88.0885 22.722 88.2069 23.5655 87.7341 24.2882C87.1491 25.1822 86.1305 25.3243 84.8789 24.5054L83.009 23.2819L86.4211 18.0669L88.2166 19.2416C88.7232 19.5731 89.0352 19.9581 89.15 20.3843C89.2647 20.8105 89.2016 21.216 88.9627 21.5811C88.641 22.0728 88.1735 22.2669 87.5725 22.161ZM87.5666 20.0399L86.8365 19.5622L86.042 20.7765L86.7721 21.2542C87.2265 21.5516 87.6481 21.4763 87.9016 21.0889C88.1404 20.7239 88.0211 20.3372 87.5666 20.0399ZM84.5455 23.0637L85.3948 23.6194C86.0429 24.0435 86.529 23.9998 86.8654 23.4857C87.1725 23.0164 87.0545 22.5136 86.3766 22.0701L85.5496 21.529L84.5455 23.0637Z" fill="white"/>
    <path d="M88.559 25.4854L89.5823 25.661C89.4209 26.2855 89.5533 26.7869 89.9853 27.1585C90.1136 27.2688 90.2592 27.3588 90.4155 27.4228C90.7408 27.5499 91.2353 27.4938 91.6068 27.0618C91.8855 26.7378 91.9595 26.3787 91.8163 25.9854C91.6789 25.5854 91.3444 25.2507 90.807 24.9881L93.1723 24.2042L91.3702 22.6541L92.0204 21.8981L95.0847 24.5339L92.4702 25.3618C92.7854 25.6916 92.9421 26.0965 92.9519 26.5629C92.9617 27.0294 92.8104 27.4511 92.491 27.8224C92.0672 28.3151 91.5559 28.5682 90.9621 28.5623C90.3749 28.5623 89.8287 28.3508 89.3225 27.9154C88.5463 27.2477 88.3007 26.3318 88.559 25.4854Z" fill="white"/>
    <path d="M103.427 34.3596L104.15 35.353L97.9115 37.3713L97.4243 36.7018L99.984 32.9564L95.638 34.247L95.1509 33.5775L98.9905 28.2621L99.7134 29.2556L97.149 32.7071L101.306 31.4441L101.835 32.1711L99.3544 35.7378L103.427 34.3596Z" fill="white"/>
    <path d="M102.267 45.5664L101.732 44.4406L102.608 43.4825L101.35 40.8369L100.055 40.9105L99.5236 39.7928L106.276 39.482L106.769 40.5193L102.267 45.5664ZM105.23 40.6199L102.387 40.778L103.308 42.716L105.23 40.6199Z" fill="white"/>
    <path d="M109.9 49.0638L110.275 50.3363L106.064 49.1173L103.63 49.8343L103.3 48.7155L105.734 47.9985L108.611 44.6912L108.984 45.9552L106.948 48.2441L109.9 49.0638Z" fill="white"/>
    <rect x="66.5898" y="28.0966" width="6.32115" height="6.14309" transform="rotate(45 66.5898 28.0966)" fill="#4DA2E6" stroke="black" stroke-width="1.42448"/>
    <path d="M26.2269 93.9364L25.4769 94.7583L27.2639 96.3889L26.423 97.3104L23.6336 94.7651L27.6107 90.4065L30.3442 92.9007L29.5033 93.8223L27.7723 92.2428L27.0507 93.0335L28.3458 94.2153L27.522 95.1182L26.2269 93.9364Z" fill="#FF791F"/>
    <path d="M33.5423 102.588L32.3477 101.781L32.5735 100.754L30.4218 99.3011L29.5533 99.8945L28.3587 99.088L33.6862 95.5655L34.8179 96.3296L33.5423 102.588ZM33.3371 97.3029L31.4076 98.6242L32.8328 99.5864L33.3371 97.3029Z" fill="#FF791F"/>
    <path d="M40.1106 105.941L38.8133 105.333L38.5419 103.073L37.8857 102.765L37.0658 104.513L35.8372 103.936L38.3434 98.5946L40.2435 99.4861C40.8464 99.7689 41.2484 100.162 41.4495 100.666C41.6582 101.174 41.6337 101.703 41.3724 102.26C41.043 102.962 40.4606 103.35 39.7594 103.356L40.1106 105.941ZM39.6373 100.58L39.0421 100.3L38.3762 101.72L38.9714 101.999C39.5285 102.26 39.9218 102.156 40.1438 101.683C40.3657 101.21 40.1944 100.841 39.6373 100.58Z" fill="#FF791F"/>
    <path d="M45.6097 101.722L44.2303 106.166L46.3716 106.83L46.0017 108.022L42.5643 106.955L44.3137 101.32L45.6097 101.722Z" fill="#FF791F"/>
    <path d="M53.9402 103.71L55.4561 103.945L52.6696 107.163L52.3173 109.429L50.9763 109.22L51.3286 106.955L49.6591 103.044L51.175 103.28L52.1988 105.802L53.9402 103.71Z" fill="#FF791F"/>
    <path d="M63.7088 104.069L65.0624 103.972L65.3354 107.798C65.4512 109.421 64.2524 110.03 63.294 110.098C62.5457 110.152 61.9115 109.91 61.3921 109.381L62.1741 108.378C62.5085 108.684 62.8478 108.82 63.201 108.795C63.3607 108.784 63.5018 108.748 63.6946 108.608C63.8874 108.467 63.9997 108.147 63.9679 107.701L63.7088 104.069Z" fill="#FF791F"/>
    <path d="M68.0946 104.427C68.5521 103.743 69.1949 103.302 70.0248 103.113C70.8548 102.923 71.6253 103.041 72.3346 103.458C73.0439 103.875 73.4949 104.524 73.6922 105.387C73.8895 106.25 73.7653 107.03 73.3078 107.714C72.8502 108.398 72.2074 108.839 71.3775 109.029C70.5476 109.219 69.777 109.101 69.0677 108.684C68.3584 108.267 67.9074 107.618 67.7101 106.755C67.5129 105.892 67.637 105.111 68.0946 104.427ZM69.8262 107.577C70.2035 107.828 70.6254 107.895 71.0938 107.788C71.5622 107.681 71.9127 107.437 72.1435 107.047C72.3742 106.657 72.4345 106.202 72.3199 105.701C72.2053 105.2 71.9553 104.824 71.578 104.573C71.2007 104.322 70.7769 104.246 70.3085 104.353C69.8401 104.461 69.4915 104.713 69.2607 105.103C69.03 105.493 68.976 105.938 69.0906 106.439C69.2052 106.94 69.4489 107.326 69.8262 107.577Z" fill="#FF791F"/>
    <path d="M75.1794 101.814L76.4522 101.343L78.4993 106.877L77.2265 107.348L75.1794 101.814Z" fill="#FF791F"/>
    <path d="M82.5699 105.219L81.3651 105.844L78.6496 100.605L79.8545 99.9808L83.7352 102.137L83.7875 102.11L82.0846 98.8248L83.2894 98.2003L86.0049 103.439L84.8 104.063L80.9193 101.907L80.867 101.934L82.5699 105.219Z" fill="#FF791F"/>
    <path d="M88.5397 99.0553L89.1924 99.9564L91.1516 98.5373L91.8834 99.5476L88.8252 101.763L85.3639 96.9843L88.3607 94.8135L89.0925 95.8239L87.1948 97.1985L87.8228 98.0654L89.2427 97.037L89.9596 98.0268L88.5397 99.0553Z" fill="#FF791F"/>
    <path d="M97.6429 94.4841L96.6059 95.473L94.4015 94.9079L93.8769 95.4082L95.209 96.8051L94.2269 97.7417L90.1548 93.4717L91.6737 92.0232C92.1557 91.5636 92.6679 91.3313 93.2106 91.3263C93.7594 91.3155 94.2432 91.5297 94.6678 91.975C95.203 92.5362 95.3537 93.2194 95.1056 93.8753L97.6429 94.4841ZM92.4737 92.9842L91.9979 93.4379L93.0799 94.5725L93.5557 94.1188C94.001 93.6941 94.0464 93.2898 93.6857 92.9116C93.325 92.5334 92.919 92.5595 92.4737 92.9842Z" fill="#FF791F"/>
</svg>
