<svg xmlns="http://www.w3.org/2000/svg" width="200" height="225" viewBox="0 0 200 225" fill="none" sourc3-extension-installed="true">
    <circle cx="99.9999" cy="100.031" r="98.1132" fill="white" stroke="black" stroke-width="3.77359"/>
    <circle cx="100.073" cy="99.8096" r="90.2749" fill="black" stroke="black" stroke-width="4.43611"/>
    <circle cx="100.069" cy="99.8097" r="64.9891" fill="white" stroke="black" stroke-width="2.95741"/>
    <circle cx="100.075" cy="99.8102" r="30.0916" fill="#FF791F" stroke="black" stroke-width="4.43611"/>
    <path d="M100.001 81.1631C89.6375 81.1631 81.1328 89.6677 81.1328 100.031C81.1328 108.874 87.3383 116.908 95.5787 118.899V112.657C94.7622 112.835 94.0108 112.841 93.1796 112.596C92.0645 112.267 91.1585 111.524 90.4859 110.391C90.0573 109.668 89.2975 108.884 88.5049 108.941L88.3105 106.739C90.0244 106.592 91.5071 107.783 92.3873 109.262C92.7782 109.919 93.2282 110.305 93.8058 110.475C94.364 110.64 94.9634 110.561 95.6619 110.314C95.8372 108.916 96.4778 108.392 96.9618 107.655V107.654C92.0472 106.921 90.0886 104.314 89.3113 102.256C88.2812 99.5234 88.834 96.1098 90.6555 93.9525C90.6909 93.9105 90.7548 93.8005 90.7301 93.7237C89.8949 91.2008 90.9126 89.1138 90.95 88.8924C91.9139 89.1774 92.0706 88.6056 95.137 90.4686L95.6671 90.7871C95.8887 90.9192 95.8191 90.8438 96.0408 90.8271C97.3211 90.4793 98.6708 90.2873 100.001 90.27C101.34 90.2873 102.682 90.4793 104.015 90.8412L104.186 90.8585C104.171 90.8562 104.233 90.8475 104.336 90.7859C108.167 88.4657 108.029 89.224 109.057 88.8901C109.094 89.1118 110.098 91.2327 109.272 93.7237C109.16 94.0668 112.593 97.2099 110.69 102.255C109.913 104.314 107.955 106.921 103.04 107.654V107.655C103.67 108.615 104.427 109.126 104.423 111.107V118.899C112.663 116.908 118.869 108.874 118.869 100.031C118.869 89.6677 110.364 81.1631 100.001 81.1631V81.1631Z" fill="black"/>
    <path d="M107.555 138.637C87.9486 144.033 67.6808 132.513 62.2852 112.907" stroke="black" stroke-width="2.36593" stroke-linecap="round"/>
    <circle cx="57.4111" cy="96.0403" r="2.80954" fill="black"/>
    <path d="M77.9776 84.8005C86.4001 84.718 93.2024 77.8647 93.2024 69.4227C93.2024 60.9294 86.3172 54.0442 77.8238 54.0442C69.3305 54.0442 62.4453 60.9294 62.4453 69.4227V84.8012H77.9776V84.8005Z" fill="black"/>
    <circle cx="132.082" cy="136.113" r="5.0276" fill="#4DA2E6" stroke="black" stroke-width="2.36593"/>
    <rect x="121.04" y="93.2232" width="23.2855" height="23.2855" fill="#3FD05A" stroke="black" stroke-width="1.4787"/>
    <mask id="mask0_5206_500" style="mask-type:alpha" maskUnits="userSpaceOnUse" x="120" y="92" width="26" height="26">
        <rect x="121.04" y="93.2232" width="23.2855" height="23.2855" fill="#3FD05A" stroke="black" stroke-width="1.4787"/>
    </mask>
    <g mask="url(#mask0_5206_500)">
        <path fill-rule="evenodd" clip-rule="evenodd" d="M123.972 89.6709L123.181 90.4619L148.415 115.696L149.206 114.905L123.972 89.6709ZM119.859 93.7849L119.068 94.5759L144.302 119.81L145.093 119.019L119.859 93.7849ZM112.9 100.746L113.691 99.9546L138.925 125.188L138.134 125.979L112.9 100.746ZM109.578 104.068L108.787 104.859L134.02 130.093L134.811 129.302L109.578 104.068ZM111.636 102.012L110.845 102.803L136.079 128.037L136.87 127.246L111.636 102.012ZM115.75 97.8979L114.958 98.689L140.192 123.923L140.983 123.132L115.75 97.8979ZM117.021 96.6326L117.812 95.8415L143.046 121.075L142.255 121.866L117.021 96.6326ZM121.126 92.519L121.917 91.728L147.151 116.962L146.36 117.753L121.126 92.519ZM125.248 88.405L126.039 87.614L151.272 112.848L150.481 113.639L125.248 88.405ZM128.085 85.5586L127.294 86.3496L152.528 111.583L153.319 110.792L128.085 85.5586ZM129.357 84.292L130.148 83.501L155.382 108.735L154.591 109.526L129.357 84.292ZM132.207 81.4448L131.416 82.2358L156.649 107.47L157.44 106.679L132.207 81.4448ZM133.47 80.1794L134.261 79.3884L159.495 104.622L158.704 105.413L133.47 80.1794ZM136.32 77.3313L135.529 78.1223L160.763 103.356L161.554 102.565L136.32 77.3313Z" fill="black"/>
    </g>
    <path d="M23.7488 76.8247C24.4334 75.7598 25.739 75.215 27.0989 75.671C28.7813 76.2351 29.4378 77.8121 28.648 80.1675L27.4681 83.6865L17.6542 80.3957L18.7871 77.0169C19.1068 76.0636 19.5943 75.4004 20.2309 75.0368C20.8675 74.6732 21.5456 74.6043 22.2326 74.8347C23.1579 75.1449 23.6664 75.8145 23.7488 76.8247ZM20.343 77.7258L19.8823 79.0997L22.1675 79.866L22.6282 78.4921C22.915 77.6368 22.6169 76.991 21.8878 76.7466C21.2009 76.5162 20.6298 76.8706 20.343 77.7258ZM26.4716 81.3092L27.0076 79.711C27.4165 78.4912 27.142 77.7285 26.1746 77.4042C25.2914 77.108 24.5331 77.5088 24.1054 78.7846L23.5835 80.3408L26.4716 81.3092Z" fill="white"/>
    <path d="M29.8017 67.496L23.9524 64.6132L24.8088 62.8756L30.6448 65.7519C31.7589 66.3011 32.4709 67.0641 32.7741 68.0543C33.0839 69.0313 32.9904 70.0238 32.4871 71.0451C31.9837 72.0664 31.247 72.7584 30.277 73.121C29.3135 73.4704 28.2747 73.3706 27.1605 72.8215L21.3245 69.9452L22.1809 68.2076L28.0301 71.0905C29.3565 71.7442 30.3588 71.249 30.8557 70.241C31.3459 69.2462 31.1413 68.1563 29.8017 67.496Z" fill="white"/>
    <path d="M26.7859 59.549L27.8219 57.9122L36.5681 63.4481L35.5321 65.0849L26.7859 59.549Z" fill="white"/>
    <path d="M31.1214 53.0937L37.9139 58.3055L40.4704 54.9738L41.8899 56.063L38.1543 60.9316L29.9422 54.6305L31.1214 53.0937Z" fill="white"/>
    <path d="M35.8877 47.0263L38.3945 44.5142C39.4286 43.4779 40.6618 42.9538 42.0734 42.9419C43.4954 42.9195 44.7088 43.4201 45.7241 44.4332C46.7604 45.4673 47.2845 46.7005 47.286 48.1225C47.2875 49.5445 46.766 50.7789 45.7215 51.8256L43.2147 54.3377L35.8877 47.0263ZM43.2851 51.6714L44.4131 50.5409C45.1338 49.8187 45.4676 49.0237 45.4249 48.1663C45.3821 47.2881 45.0153 46.5043 44.3349 45.8253C43.6755 45.1673 42.9223 44.8335 42.0544 44.8031C41.197 44.7622 40.4027 45.0976 39.682 45.8198L38.554 46.9503L43.2851 51.6714Z" fill="white"/>
    <path d="M44.9039 38.4551L46.4145 37.2424L52.8945 45.3141L51.3839 46.5268L44.9039 38.4551Z" fill="white"/>
    <path d="M56.7473 42.3661L55.1136 43.4069L49.5523 34.6768L51.186 33.6361L59.1922 37.0392L59.2795 36.9836L55.4263 30.9349L57.0601 29.8941L62.6214 38.6242L60.9876 39.6649L52.9814 36.2618L52.8941 36.3175L56.7473 42.3661Z" fill="white"/>
    <path d="M67.6736 30.0559L71.6727 28.3137C73.4909 31.3765 72.2131 34.2558 69.6975 35.3679C68.3418 35.9585 66.9887 35.9996 65.6246 35.4971C64.2605 34.9946 63.2781 34.0354 62.6639 32.6256C62.0556 31.2293 62.0357 29.8508 62.5966 28.5096C63.1516 27.1549 64.1031 26.192 65.4452 25.6073C66.6924 25.0639 67.9151 24.9829 69.1076 25.3505L68.5681 27.0371C67.7632 26.8555 66.9985 26.9145 66.2801 27.2275C65.3853 27.6173 64.7561 28.2463 64.4118 29.1221C64.0676 29.9979 64.1001 30.887 64.5076 31.8224C64.9151 32.7577 65.5441 33.387 66.3927 33.7431C67.2414 34.0991 68.117 34.0725 68.9981 33.6887C70.4893 33.039 71.0558 31.9696 70.6897 30.5L68.3173 31.5336L67.6736 30.0559Z" fill="white"/>
    <path d="M77.7255 21.3806L84.8134 19.8771L85.1847 21.6274L82.5809 22.1797L84.3575 30.5551L82.4625 30.957L80.686 22.5817L78.0967 23.1309L77.7255 21.3806Z" fill="white"/>
    <path d="M95.1215 23.0713L94.8007 18.7802L96.7324 18.6358L97.5041 28.9579L95.5724 29.1023L95.2549 24.8555L90.8311 25.1862L91.1486 29.433L89.2169 29.5775L88.4452 19.2553L90.3769 19.1109L90.6977 23.402L95.1215 23.0713Z" fill="white"/>
    <path d="M102.415 24.7382L102.258 27.2767L106.759 27.5556L106.649 29.3414L100.214 28.9428L100.854 18.6117L107.156 19.002L107.045 20.7878L102.677 20.5172L102.523 22.9967L105.844 23.2024L105.736 24.9439L102.415 24.7382Z" fill="white"/>
    <path d="M128.094 23.5695L130.05 24.1507L123.856 33.1084L122.537 32.7167L122.135 25.1927L117.704 31.2806L116.386 30.8889L116.088 20.0022L118.044 20.5834L118.143 27.7244L122.353 21.8638L123.785 22.2891L124.111 29.4975L128.094 23.5695Z" fill="white"/>
    <path d="M132.573 32.0272L131.458 34.3128L135.511 36.2912L134.726 37.8991L128.932 35.071L133.472 25.7691L139.147 28.5387L138.362 30.1466L134.428 28.2267L133.339 30.4592L136.329 31.9186L135.563 33.4866L132.573 32.0272Z" fill="white"/>
    <path d="M144.408 37.1515C145.265 38.0833 145.462 39.4843 144.677 40.6845C143.705 42.1694 142.013 42.4054 139.934 41.0453L136.829 39.0132L142.496 30.3515L145.478 32.3027C146.319 32.8532 146.837 33.4927 147.028 34.2006C147.219 34.9085 147.114 35.582 146.717 36.1883C146.183 37.005 145.406 37.3275 144.408 37.1515ZM144.398 33.6285L143.186 32.8351L141.866 34.852L143.079 35.6455C143.833 36.1393 144.534 36.0143 144.955 35.3709C145.351 34.7646 145.153 34.1224 144.398 33.6285ZM139.381 38.6508L140.791 39.5737C141.868 40.2781 142.675 40.2055 143.234 39.3517C143.744 38.5722 143.548 37.7372 142.422 37.0005L141.048 36.1018L139.381 38.6508Z" fill="white"/>
    <path d="M146.006 42.6431L147.706 42.9347C147.438 43.9719 147.658 44.8047 148.375 45.4219C148.588 45.6051 148.83 45.7547 149.09 45.861C149.63 46.072 150.451 45.9788 151.068 45.2613C151.531 44.7232 151.654 44.1268 151.416 43.4736C151.188 42.8092 150.632 42.2533 149.74 41.8171L153.668 40.5151L150.675 37.9405L151.755 36.685L156.845 41.0627L152.502 42.4378C153.026 42.9856 153.286 43.6581 153.302 44.4328C153.319 45.2075 153.067 45.908 152.537 46.5245C151.833 47.3429 150.984 47.7632 149.997 47.7535C149.022 47.7534 148.115 47.4022 147.274 46.679C145.985 45.5701 145.577 44.0489 146.006 42.6431Z" fill="white"/>
    <path d="M170.644 57.3193L171.845 58.9693L161.483 62.3215L160.673 61.2095L164.925 54.9888L157.707 57.1323L156.897 56.0203L163.275 47.192L164.475 48.8421L160.216 54.5747L167.12 52.4769L167.999 53.6845L163.879 59.6084L170.644 57.3193Z" fill="white"/>
    <path d="M168.682 75.8733L167.793 74.0035L169.247 72.4122L167.159 68.0181L165.007 68.1404L164.124 66.284L175.339 65.7677L176.158 67.4906L168.682 75.8733ZM173.602 67.6577L168.88 67.9203L170.41 71.139L173.602 67.6577Z" fill="white"/>
    <path d="M181.342 81.6269L181.964 83.7404L174.971 81.7157L170.928 82.9067L170.381 81.0485L174.423 79.8576L179.202 74.3646L179.821 76.4639L176.439 80.2656L181.342 81.6269Z" fill="white"/>
    <rect x="109.766" y="46.6969" width="10.4988" height="10.2031" transform="rotate(45 109.766 46.6969)" fill="#4DA2E6" stroke="black" stroke-width="2.36593"/>
    <path d="M42.9191 155.838L41.6734 157.204L44.6415 159.912L43.2448 161.442L38.6118 157.215L45.2175 149.976L49.7574 154.118L48.3608 155.649L45.4858 153.026L44.2874 154.339L46.4384 156.302L45.0701 157.801L42.9191 155.838Z" fill="#FF791F"/>
    <path d="M55.0363 170.181L53.0521 168.842L53.4271 167.135L49.8533 164.722L48.4109 165.708L46.4267 164.369L55.2752 158.518L57.1549 159.787L55.0363 170.181ZM54.6953 161.404L51.4907 163.598L53.8578 165.196L54.6953 161.404Z" fill="#FF791F"/>
    <path d="M65.9066 175.729L63.752 174.718L63.3013 170.965L62.2113 170.454L60.8496 173.356L58.809 172.399L62.9716 163.527L66.1275 165.007C67.1288 165.477 67.7964 166.131 68.1305 166.968C68.4772 167.811 68.4365 168.689 68.0024 169.614C67.4553 170.78 66.4881 171.424 65.3234 171.434L65.9066 175.729ZM65.1207 166.824L64.1321 166.36L63.026 168.717L64.0146 169.181C64.9398 169.615 65.5931 169.442 65.9618 168.657C66.3305 167.871 66.0459 167.258 65.1207 166.824Z" fill="#FF791F"/>
    <path d="M75.0023 168.707L72.7111 176.088L76.2676 177.192L75.6533 179.171L69.9441 177.398L72.8496 168.039L75.0023 168.707Z" fill="#FF791F"/>
    <path d="M88.7967 171.999L91.3145 172.391L86.6864 177.735L86.1013 181.498L83.874 181.151L84.4591 177.389L81.6862 170.894L84.2039 171.285L85.9045 175.474L88.7967 171.999Z" fill="#FF791F"/>
    <path d="M104.961 172.593L107.209 172.433L107.662 178.787C107.855 181.482 105.864 182.494 104.272 182.608C103.029 182.697 101.976 182.294 101.113 181.416L102.412 179.751C102.967 180.259 103.531 180.485 104.117 180.443C104.383 180.424 104.617 180.366 104.937 180.132C105.257 179.899 105.444 179.366 105.391 178.626L104.961 172.593Z" fill="#FF791F"/>
    <path d="M112.203 173.195C112.962 172.059 114.03 171.327 115.409 171.012C116.787 170.697 118.067 170.892 119.245 171.585C120.423 172.278 121.172 173.356 121.5 174.789C121.827 176.222 121.621 177.519 120.861 178.655C120.101 179.791 119.034 180.523 117.655 180.838C116.277 181.153 114.997 180.958 113.819 180.265C112.641 179.572 111.892 178.494 111.564 177.061C111.236 175.628 111.443 174.331 112.203 173.195ZM115.079 178.426C115.705 178.843 116.406 178.955 117.184 178.777C117.962 178.599 118.544 178.194 118.927 177.546C119.311 176.898 119.411 176.143 119.22 175.31C119.03 174.478 118.615 173.855 117.988 173.438C117.361 173.021 116.658 172.895 115.88 173.073C115.102 173.25 114.523 173.67 114.139 174.318C113.756 174.965 113.667 175.704 113.857 176.537C114.047 177.369 114.452 178.009 115.079 178.426Z" fill="#FF791F"/>
    <path d="M123.933 168.864L126.047 168.082L129.447 177.274L127.333 178.056L123.933 168.864Z" fill="#FF791F"/>
    <path d="M136.171 174.535L134.17 175.573L129.66 166.872L131.661 165.835L138.106 169.416L138.193 169.371L135.365 163.915L137.366 162.877L141.876 171.578L139.875 172.615L133.43 169.034L133.343 169.079L136.171 174.535Z" fill="#FF791F"/>
    <path d="M146.051 164.32L147.135 165.816L150.389 163.459L151.605 165.137L146.525 168.817L140.776 160.88L145.754 157.275L146.969 158.953L143.817 161.236L144.86 162.676L147.218 160.968L148.409 162.612L146.051 164.32Z" fill="#FF791F"/>
    <path d="M161.14 156.752L159.418 158.395L155.756 157.456L154.885 158.287L157.098 160.607L155.466 162.163L148.703 155.071L151.226 152.665C152.026 151.902 152.877 151.516 153.778 151.508C154.69 151.49 155.493 151.845 156.199 152.585C157.088 153.517 157.338 154.652 156.926 155.741L161.14 156.752ZM152.554 154.261L151.764 155.015L153.561 156.899L154.352 156.146C155.091 155.44 155.166 154.769 154.567 154.141C153.968 153.512 153.294 153.556 152.554 154.261Z" fill="#FF791F"/>
</svg>
