<svg width="121" height="120" viewBox="0 0 121 120" fill="none" xmlns="http://www.w3.org/2000/svg">
<circle cx="60.9976" cy="60" r="58.8679" fill="white" stroke="black" stroke-width="2.26415"/>
<circle cx="61.0412" cy="59.8671" r="52.8341" fill="url(#paint0_linear_4703_1772)"/>
<path d="M60.342 26.4443C42.2448 26.4443 27.5156 41.1804 27.5156 59.2707C27.5156 77.361 42.2517 92.0971 60.342 92.0971C78.4323 92.0971 93.1684 77.361 93.1684 59.2707C93.1684 41.1804 78.4323 26.4443 60.342 26.4443ZM60.2934 29.361C60.8547 29.3755 61.3881 29.6095 61.7799 30.0129C62.1716 30.4164 62.3908 30.9575 62.3906 31.5207C62.3906 32.0935 62.1631 32.6429 61.7581 33.0479C61.353 33.4529 60.8037 33.6804 60.2309 33.6804C59.6581 33.6804 59.1088 33.4529 58.7037 33.0479C58.2987 32.6429 58.0712 32.0935 58.0712 31.5207C58.0711 31.2318 58.1289 30.9457 58.2413 30.6795C58.3538 30.4134 58.5185 30.1724 58.7257 29.971C58.9329 29.7697 59.1784 29.6119 59.4477 29.5071C59.717 29.4023 60.0046 29.3526 60.2934 29.361ZM65.2378 32.9166C69.0293 33.6267 72.6207 35.1537 75.7626 37.3914C78.9045 39.6291 81.5217 42.524 83.4323 45.8749L80.8837 51.6249C80.4462 52.6179 80.8976 53.7846 81.8837 54.2291L86.7865 56.4027C86.9385 57.9352 86.9571 59.478 86.842 61.0138H84.1128C83.842 61.0138 83.7309 61.1943 83.7309 61.4582V62.7082C83.7309 65.6527 82.0712 66.2985 80.6128 66.4582C79.224 66.6179 77.6892 65.8749 77.4948 65.0277C76.6753 60.4235 75.3142 59.4443 73.1615 57.7429C75.8351 56.0485 78.6128 53.5416 78.6128 50.1943C78.6128 46.5763 76.1337 44.2985 74.4462 43.1804C72.0712 41.6179 69.4462 41.3054 68.7378 41.3054H40.5434C44.442 36.9502 49.6678 34.0017 55.4115 32.9166L58.7378 36.4027C59.4878 37.1874 60.7309 37.2221 61.5156 36.4652L65.2378 32.9166ZM34.5434 48.9027C35.1053 48.9189 35.6387 49.1536 36.0303 49.5569C36.4219 49.9602 36.6409 50.5003 36.6406 51.0624C36.6406 51.6352 36.4131 52.1845 36.0081 52.5895C35.603 52.9946 35.0537 53.2221 34.4809 53.2221C33.9081 53.2221 33.3588 52.9946 32.9537 52.5895C32.5487 52.1845 32.3212 51.6352 32.3212 51.0624C32.3211 50.7734 32.3789 50.4874 32.4913 50.2212C32.6038 49.955 32.7685 49.7141 32.9757 49.5127C33.1829 49.3113 33.4284 49.1536 33.6977 49.0488C33.967 48.944 34.2546 48.8943 34.5434 48.9027ZM86.0365 48.9999C86.5984 49.0162 87.1318 49.2509 87.5234 49.6541C87.915 50.0574 88.1339 50.5975 88.1337 51.1596C88.1337 51.7324 87.9061 52.2817 87.5011 52.6868C87.0961 53.0918 86.5467 53.3193 85.974 53.3193C85.4012 53.3193 84.8518 53.0918 84.4468 52.6868C84.0418 52.2817 83.8142 51.7324 83.8142 51.1596C83.8141 50.8707 83.872 50.5846 83.9844 50.3184C84.0968 50.0522 84.2615 49.8113 84.4687 49.6099C84.6759 49.4085 84.9215 49.2508 85.1908 49.146C85.46 49.0412 85.7476 48.9915 86.0365 48.9999ZM38.6128 49.3471H42.3767V66.3193H34.7795C33.8412 63.0245 33.5488 59.5793 33.9184 56.1735L38.5712 54.1041C39.5642 53.6596 40.0156 52.4999 39.5712 51.5068L38.6128 49.3471ZM54.3212 49.5277H63.2865C63.7517 49.5277 66.5573 50.0624 66.5573 52.1666C66.5573 53.9096 64.4045 54.5346 62.6337 54.5346H54.3142L54.3212 49.5277ZM54.3212 61.7221H61.1892C61.8142 61.7221 64.5434 61.9027 65.4115 65.3888C65.6823 66.4582 66.2865 69.9443 66.6962 71.0624C67.1059 72.3124 68.7656 74.8124 70.5365 74.8124H81.7448C80.9936 75.8183 80.1721 76.7698 79.2865 77.6596L74.724 76.6804C73.6615 76.4513 72.6128 77.1318 72.3837 78.1943L71.3003 83.2499C67.8167 84.828 64.0335 85.6356 60.2091 85.6176C56.3847 85.5996 52.6093 84.7565 49.1406 83.1457L48.0573 78.0902C47.8281 77.0277 46.7865 76.3471 45.724 76.5763L41.2587 77.5346C40.4301 76.6799 39.6598 75.7704 38.9531 74.8124H60.6684C60.9115 74.8124 61.0781 74.7707 61.0781 74.5416V66.861C61.0781 66.6388 60.9115 66.5902 60.6684 66.5902H54.3142L54.3212 61.7221ZM44.3003 79.3124C44.8622 79.3287 45.3956 79.5634 45.7873 79.9666C46.1789 80.3699 46.3978 80.91 46.3976 81.4721C46.3976 82.0449 46.17 82.5942 45.765 82.9993C45.36 83.4043 44.8106 83.6318 44.2378 83.6318C43.6651 83.6318 43.1157 83.4043 42.7107 82.9993C42.3057 82.5942 42.0781 82.0449 42.0781 81.4721C42.078 81.1832 42.1359 80.8971 42.2483 80.6309C42.3607 80.3647 42.5254 80.1238 42.7326 79.9224C42.9398 79.721 43.1854 79.5633 43.4546 79.4585C43.7239 79.3537 44.0115 79.304 44.3003 79.3124ZM76.2795 79.4096C76.8414 79.4259 77.3748 79.6606 77.7664 80.0639C78.158 80.4671 78.377 81.0072 78.3767 81.5693C78.3767 82.1421 78.1492 82.6915 77.7442 83.0965C77.3391 83.5015 76.7898 83.7291 76.217 83.7291C75.6442 83.7291 75.0949 83.5015 74.6899 83.0965C74.2848 82.6915 74.0573 82.1421 74.0573 81.5693C74.0572 81.2804 74.115 80.9943 74.2275 80.7281C74.3399 80.462 74.5046 80.221 74.7118 80.0196C74.919 79.8183 75.1645 79.6605 75.4338 79.5557C75.7031 79.4509 75.9907 79.4012 76.2795 79.4096Z" fill="black"/>
<path fill-rule="evenodd" clip-rule="evenodd" d="M91.3338 59.2709C91.3338 67.4908 88.0684 75.374 82.2561 81.1863C76.4438 86.9986 68.5606 90.2639 60.3407 90.2639C52.1208 90.2639 44.2376 86.9986 38.4253 81.1863C32.613 75.374 29.3477 67.4908 29.3477 59.2709C29.3477 51.051 32.613 43.1678 38.4253 37.3555C44.2376 31.5432 52.1208 28.2778 60.3407 28.2778C68.5606 28.2778 76.4438 31.5432 82.2561 37.3555C88.0684 43.1678 91.3338 51.051 91.3338 59.2709ZM90.7504 56.2778L95.5838 59.2709L90.7504 62.2639L94.9032 66.1459L89.5838 68.1389L92.9032 72.757L87.2852 73.6737L89.6463 78.8542L83.9588 78.6528L85.2643 84.1945L79.7227 82.8889L79.924 88.5764L74.7435 86.2153L73.8268 91.8334L69.2088 88.5139L67.2157 93.8334L63.3338 89.6806L60.3407 94.5139L57.3477 89.6806L53.4657 93.8334L51.4727 88.5139L46.8546 91.8334L45.9379 86.2153L40.7574 88.5764L40.9588 82.8889L35.4171 84.1945L36.7227 78.6528L31.0352 78.8542L33.3963 73.6737L27.7782 72.757L31.0977 68.1389L25.7782 66.1459L29.931 62.2639L25.0977 59.2709L29.931 56.2778L25.7782 52.3959L31.0977 50.4028L27.7782 45.7848L33.3963 44.8681L31.0352 39.6876L36.7227 39.8889L35.4171 34.3473L40.9588 35.6528L40.7574 29.9653L45.9379 32.3264L46.8546 26.7084L51.4727 30.0278L53.4657 24.7084L57.3477 28.8612L60.3407 24.0278L63.3338 28.8612L67.2157 24.7084L69.2088 30.0278L73.8268 26.7084L74.7435 32.3264L79.924 29.9653L79.7227 35.6528L85.2643 34.3473L83.9588 39.8889L89.6463 39.6876L87.2852 44.8681L92.9032 45.7848L89.5838 50.4028L94.9032 52.3959L90.7504 56.2778Z" fill="black" stroke="black" stroke-width="3" stroke-linecap="round" stroke-linejoin="round"/>
<defs>
<linearGradient id="paint0_linear_4703_1772" x1="44" y1="36.0001" x2="89" y2="88.5001" gradientUnits="userSpaceOnUse">
<stop stop-color="#C1C1C1"/>
<stop offset="0.4375" stop-color="#FAFAFA"/>
<stop offset="0.984375" stop-color="#C1C1C1"/>
</linearGradient>
</defs>
</svg>
